<svg id="Layer_1" data-name="Layer 1" xmlns="http://www.w3.org/2000/svg" viewBox="0 0 540 520"><defs><style>.cls-1{fill:#095f61;}.cls-2,.cls-3{fill:#6e4e26;}.cls-3{font-size:29.41px;font-family:29LTBukra-Bold, "29LT Bukra";font-weight:700;}</style></defs><path class="cls-1" d="M195.87,207q2.64-7.2,5.26-14.4c.15-.41.17-1,.46-1.2.51-.43,1.23-1,1.77-.91.93.14,1.22,1,.85,1.91L200,203.22c-1.58,4.08-1.87,8.14.11,12.21a15.93,15.93,0,0,0,5.22,5.75,19,19,0,0,1,4,3.79,7.4,7.4,0,0,1,.78,8.18,7.75,7.75,0,0,0-.08,6.93c2.31,5.59,4.56,11.21,6.84,16.81.14.35.32.67.54,1.12l6-2.6,17.24-7.52c.35-.16.74-.49,1-.42.62.13,1.49.34,1.7.78a1.88,1.88,0,0,1-.61,1.7,13.75,13.75,0,0,1-2.79,1.32l-20.23,8.83c-.44.19-.86.41-1.38.65.56,1.34,1,2.62,1.63,3.83a4.15,4.15,0,0,0,4.07,2.5,4.06,4.06,0,0,0,3.77-2.67c1.1-2.35,2.31-2.86,4.69-2,2.63,1,4.72.12,5.91-2.45,1-2.15,2.35-2.77,4.45-1.9,1.85.76,3.56.7,5-.75a4.49,4.49,0,0,0,.78-5.18q-4.54-11.22-9.1-22.42c-.41-1-.83-2-1.31-3.15L226,232.08l-11,5c-1,.45-1.95.76-2.5-.47s.45-1.72,1.38-2.14L234,225.38c.63-.28,1.26-.59,2.25-1.06l-2.23-1a8.88,8.88,0,0,1-5.21-9.3c.18-1.24.41-2.47.61-3.71.93-5.74-1-10.4-5.71-13.65-2.26-1.56-4.95-2.5-7.44-3.72l-5.88-2.87c-.94-.45-1.6-1.08-1-2.18s1.36-.81,2.25-.38c3.45,1.63,6.92,3.21,10.38,4.82,6.77,3.16,10.45,8.41,10.53,15.94a27,27,0,0,1-.77,5.17c-.65,3.49.68,6.15,3.95,7.46a9.71,9.71,0,0,1,5.66,5.57c3.38,8.33,6.82,16.65,10.12,25a6.88,6.88,0,0,1-1.56,7.87,6.71,6.71,0,0,1-7.85,1.44l-.57-.23c-2.32,4.71-5.7,6.19-10.71,4.37a7.2,7.2,0,0,1-6.07,5c-3.22.38-6.19-1.54-7.56-4.86q-4.44-10.81-8.8-21.65c-.52-1.26-1-2.53-1.47-3.82a9,9,0,0,1,.22-6.7c1.65-4,1-6.41-2.59-8.83-3.36-2.24-6.15-4.89-7.57-8.76-.41-1.12-.73-2.27-1.1-3.4Z"/><path class="cls-1" d="M340.43,197.72h11.49c.16-1.36.23-2.71.49-4a10.26,10.26,0,0,1,9.7-8c.93,0,1.81.28,1.66,1.28a2.3,2.3,0,0,1-1.5,1.49c-5.37,1.1-7.29,3.38-7.29,8.88s0,11.26,0,16.89a7.37,7.37,0,0,0,7,7.61c1,.09,1.91.31,1.84,1.57s-1,1.35-2,1.33c-5.07-.15-9.38-4.57-9.71-10,0-.49-.05-1-.07-1.59H340.44c-1.12,2.94-2.17,3.66-5.37,3.66h-9.35a4.24,4.24,0,0,1-4.51-3,1.24,1.24,0,0,0-.53-.72,4.7,4.7,0,0,0-6.7,4.48c0,1.09,0,2.18,0,3.28s-.47,1.69-1.54,1.7c-3.93,0-7.87.06-11.8,0a2.06,2.06,0,0,1-1.51-1.29c-.34-5.73-.21-11.39,3.6-16.21a17.81,17.81,0,0,1,14.75-7.16c.71,0,1.42-.05,2.13,0,.95.07,1.44-.15,1.64-1.24a3.7,3.7,0,0,1,3.65-3c3.82-.06,7.65-.07,11.48,0C338.55,193.62,339.81,195,340.43,197.72Zm-2.94,7.46h0c0-2.29,0-4.58,0-6.87,0-1.14-.31-1.9-1.66-1.88q-5.14,0-10.31,0c-1.2,0-1.68.57-1.68,1.7v14.09c0,1.11.47,1.72,1.67,1.71,3.44,0,6.88,0,10.32,0,1.22,0,1.65-.6,1.64-1.71Zm-16.62-4.41c-12-1.57-20.66,7.16-18.85,18.86h9.11c-.73-7.23,2.74-10.23,9.74-9.37Zm31.1-.05H340.51v9.4H352Z"/><path class="cls-1" d="M253.65,124.09c4.4-9.06,11.42-14.29,21.52-13.88,12.09.49,19,7.57,21.79,18.83a42.08,42.08,0,0,1,6.52.53,13,13,0,0,1-2.91,25.52q-25.41.14-50.82,0a15.59,15.59,0,0,1-2.35-30.94A37.15,37.15,0,0,1,253.65,124.09Zm21.29,28.15c8.31,0,16.62,0,24.93,0a10.12,10.12,0,0,0,7.86-16.52,9.77,9.77,0,0,0-10.44-3.43c-2.73.63-3,.49-3.28-2.22-1-9.86-10.52-18-20.39-17.13-8.37.71-14.3,4.93-17.41,12.83-.56,1.41-1.35,1.6-2.79,1.44a19.33,19.33,0,0,0-6.44,0c-6.42,1.53-10.24,7.47-9.43,14.14a12.77,12.77,0,0,0,12.63,10.88C258.44,152.26,266.69,152.24,274.94,152.24Z"/><path class="cls-2" d="M296.14,245.92a13.36,13.36,0,0,1,1.24-3.72c2.56-4,5.34-8,8.07-11.89a1.33,1.33,0,0,1,2.25-.19c3.72,4.44,7.52,8.89,9.18,14.58,1.45,5-2.07,10.49-7.34,12C302.91,258.61,296.14,253.57,296.14,245.92Zm10.29-13c-2.32,3.71-4.51,7.14-6.6,10.63a6.26,6.26,0,0,0-.61,5.05,7.75,7.75,0,0,0,9.65,5.31c4-1.19,6.47-5.49,5.09-9.23C312.37,240.41,309.52,236.88,306.43,232.94Z"/><path class="cls-2" d="M330.79,180.27c2,0,4,0,6.06,0,2.58,0,4.06,1.36,4,3.5s-1.54,3.41-4,3.44q-6.23.06-12.44,0c-2.44,0-3.91-1.37-3.92-3.45s1.38-3.38,3.85-3.49h6.39Zm0,4.1c2,0,3.93,0,5.89,0a5,5,0,0,0,1.59-.65,4.82,4.82,0,0,0-1.51-.57c-4,0-8-.05-12,0a4.48,4.48,0,0,0-1.57.65,5.92,5.92,0,0,0,1.66.56C326.82,184.41,328.79,184.37,330.75,184.37Z"/><path class="cls-1" d="M196.16,183.88c.11-2.35.9-3.66,2.49-4.37,2.09-.92,4.2-1.81,6.35-2.59a4,4,0,0,1,5.29,2.26c.55,1.18,1,2.4,1.5,3.62a1.47,1.47,0,0,1-.89,2.13c-3.63,1.48-7.25,3-10.92,4.35a1.81,1.81,0,0,1-1.67-.39C197.41,187.1,196.72,185.22,196.16,183.88Zm12.53-1.12c-.28-.71-.51-1.21-.68-1.73-.46-1.41-1.26-1.9-2.72-1.22-1.67.78-3.4,1.46-5.12,2.12a1.43,1.43,0,0,0-.94,2.07c.24.7.59,1.37,1,2.2Z"/><path class="cls-2" d="M267.7,204a5.21,5.21,0,0,1,.49-1.75c1.37-2.21,2.82-4.39,4.33-6.51a1.39,1.39,0,0,1,2.46,0,60.11,60.11,0,0,1,4.27,6.54,5.31,5.31,0,0,1-1.26,6.42,6,6,0,0,1-6.64,1.25A6.11,6.11,0,0,1,267.7,204Zm6.05-5.56c-1.1,1.81-2.09,3.24-2.87,4.77a2.9,2.9,0,0,0,.93,3.77,3.18,3.18,0,0,0,3.92,0,2.88,2.88,0,0,0,.84-3.79C275.81,201.7,274.86,200.31,273.75,198.48Z"/><path class="cls-1" d="M261.29,193.87c-4.21-.06-7.18-4.34-5.37-8.13a45.53,45.53,0,0,1,4.37-6.67,1.33,1.33,0,0,1,2.34.06,48.2,48.2,0,0,1,4.23,6.37A5.85,5.85,0,0,1,261.29,193.87Zm.16-12c-1.13,1.85-2.08,3.28-2.9,4.78a2.78,2.78,0,0,0,.83,3.65,3.24,3.24,0,0,0,3.94.14,2.81,2.81,0,0,0,1.06-3.61C263.62,185.23,262.59,183.77,261.45,181.86Z"/><path class="cls-2" d="M286,193.87a5.83,5.83,0,0,1-5.46-8.31,46.73,46.73,0,0,1,4.22-6.39,1.37,1.37,0,0,1,2.45,0,45.9,45.9,0,0,1,4.29,6.53C293.39,189.53,290.34,193.87,286,193.87Zm0-12c-1.12,1.83-2.07,3.21-2.85,4.69a2.89,2.89,0,0,0,.85,3.79,3.38,3.38,0,0,0,3.95,0,3,3,0,0,0,.91-3.79C288.14,185.11,287.18,183.73,286,181.87Z"/><path class="cls-2" d="M298.32,177.25a5.83,5.83,0,0,1-5.42-8.36,47.62,47.62,0,0,1,4.24-6.37,1.36,1.36,0,0,1,2.44,0,48.91,48.91,0,0,1,4.21,6.39A5.82,5.82,0,0,1,298.32,177.25Zm0-12c-1.13,1.85-2.14,3.27-2.9,4.82a2.83,2.83,0,0,0,.89,3.66,3.19,3.19,0,0,0,4,0,2.87,2.87,0,0,0,.9-3.78C300.43,168.5,299.47,167.1,298.35,165.25Z"/><path class="cls-1" d="M267.54,171.18a11.44,11.44,0,0,1,.87-2.59c1.25-2,2.62-4,4-6,.75-1.07,1.76-1.19,2.55-.08a63.32,63.32,0,0,1,4.28,6.54,5.38,5.38,0,0,1-1.25,6.43,6.22,6.22,0,0,1-6.68,1.25A6.4,6.4,0,0,1,267.54,171.18Zm6.2-6c-1.17,2-2.22,3.43-3,5a2.77,2.77,0,0,0,1.11,3.6,3,3,0,0,0,3.8-.1,2.72,2.72,0,0,0,.94-3.62C275.83,168.58,274.88,167.12,273.74,165.2Z"/><path class="cls-2" d="M249.16,177.25a5.83,5.83,0,0,1-5.49-8.31,47.25,47.25,0,0,1,4.22-6.38,1.36,1.36,0,0,1,2.44,0,48.23,48.23,0,0,1,4.28,6.53A5.81,5.81,0,0,1,249.16,177.25Zm0-12c-1.14,1.89-2.19,3.36-2.94,5a2.78,2.78,0,0,0,1.05,3.62,3,3,0,0,0,3.79,0,2.73,2.73,0,0,0,1-3.61C251.25,168.59,250.26,167.11,249.14,165.23Z"/><path class="cls-1" d="M280.44,275c-.33-.32-1.25-.81-1.38-1.46-.21-1,.67-1.44,1.68-1.52a46.8,46.8,0,0,1,4.71-.42c.63,0,1.25.71,1.88,1.09-.48.54-.88,1.41-1.46,1.55A48.65,48.65,0,0,1,280.44,275Z"/><path class="cls-1" d="M344.59,167.48c-.46.53-.77,1.18-1.22,1.3a1.69,1.69,0,0,1-1.52-.47,49.94,49.94,0,0,1-2.74-5.35,1.65,1.65,0,0,1,.59-1.46c.38-.24,1.39-.22,1.55,0C342.42,163.42,343.44,165.4,344.59,167.48Z"/><path class="cls-1" d="M292.26,273.2c-.39-.4-1.12-.81-1.13-1.23a2,2,0,0,1,.88-1.61,35.34,35.34,0,0,1,5.45-1.56,2,2,0,0,1,1.61.93,1.71,1.71,0,0,1-.65,1.55C296.5,272,294.51,272.52,292.26,273.2Z"/><path class="cls-1" d="M321.68,139.27a1.37,1.37,0,0,1-2.12,1.27,44.75,44.75,0,0,1-4.66-3.32,1.72,1.72,0,0,1-.24-1.67c.25-.4,1.27-.8,1.59-.6,1.76,1.08,3.42,2.32,5.09,3.56C321.56,138.67,321.6,139.08,321.68,139.27Z"/><path class="cls-1" d="M329.41,149a3.23,3.23,0,0,1-.75-.31c-1.49-1.43-3-2.83-4.41-4.35a1.56,1.56,0,0,1,.1-1.56c.37-.34,1.38-.58,1.67-.33a54.47,54.47,0,0,1,4.44,4.29,1.72,1.72,0,0,1,0,1.49C330.3,148.6,329.74,148.78,329.41,149Z"/><path class="cls-1" d="M339.44,238.13c-.38-.84-1.11-1.68-.92-2.15a35.59,35.59,0,0,1,2.79-5.33,1.7,1.7,0,0,1,1.62-.36c.42.21.91,1.16.75,1.51-.81,1.83-1.8,3.59-2.79,5.34C340.71,237.46,340.21,237.62,339.44,238.13Z"/><path class="cls-1" d="M333.06,247.67c-1.26,0-2-1.08-1.38-2a51.24,51.24,0,0,1,3.66-4.78,1.58,1.58,0,0,1,1.56-.13c.4.33.78,1.31.57,1.62-1.17,1.75-2.51,3.39-3.82,5.05C333.51,247.61,333.17,247.63,333.06,247.67Z"/><path class="cls-1" d="M319.53,257.77c.28.25.88.54,1,.94a1.86,1.86,0,0,1-.4,1.58,41.62,41.62,0,0,1-4.74,3.17,1.33,1.33,0,0,1-1.63-2c1.57-1.25,3.27-2.34,4.94-3.47A3.19,3.19,0,0,1,319.53,257.77Z"/><path class="cls-1" d="M222.51,147.22a3.78,3.78,0,0,1-.38.86c-1.29,1.48-2.55,3-3.95,4.36a1.7,1.7,0,0,1-1.68,0,1.93,1.93,0,0,1-.23-1.81,40.35,40.35,0,0,1,3.77-4.28,2,2,0,0,1,1.62-.18C222,146.28,222.25,146.86,222.51,147.22Z"/><path class="cls-1" d="M350.86,190.83c-.33.33-.83,1.24-1.38,1.27s-1.36-.83-1.51-1.44a23.86,23.86,0,0,1-.73-5c0-.55.7-1.13,1.08-1.69.56.39,1.49.68,1.62,1.18C350.37,186.84,350.52,188.58,350.86,190.83Z"/><path class="cls-1" d="M261.82,274c-2.18-.51-4.05-.86-5.85-1.44A1.86,1.86,0,0,1,255,271a1.81,1.81,0,0,1,1.45-1,35,35,0,0,1,5.56,1.17,1.92,1.92,0,0,1,.94,1.59C262.93,273.22,262.17,273.65,261.82,274Z"/><path class="cls-1" d="M270.85,272.07a14.84,14.84,0,0,1,3.08.27,2,2,0,0,1,1.19,1.38c0,.38-.74,1.2-1.17,1.22a39.52,39.52,0,0,1-5.86-.26c-.47-.06-.84-.93-1.25-1.42.52-.43,1-1.07,1.58-1.24a9.37,9.37,0,0,1,2.43,0Z"/><path class="cls-1" d="M333.21,151.13c1.66.07,5.38,5.13,5,6.2-.3.92-1.21,1.54-1.85.83a39.75,39.75,0,0,1-4-5.48C332.23,152.39,333,151.52,333.21,151.13Z"/><path class="cls-1" d="M348.7,179.08c-.46.42-.85,1-1.34,1.13a1.64,1.64,0,0,1-1.44-.68,45.91,45.91,0,0,1-1.78-5.74c-.09-.39.54-1.2,1-1.39a1.58,1.58,0,0,1,1.45.59C347.36,174.9,348,176.87,348.7,179.08Z"/><path class="cls-1" d="M348.36,220c-.8,2.22-1.42,4.18-2.25,6.06a1.76,1.76,0,0,1-1.63.49,1.71,1.71,0,0,1-.81-1.5,39.22,39.22,0,0,1,1.84-5.38,1.8,1.8,0,0,1,1.51-.77C347.49,219,347.9,219.61,348.36,220Z"/><path class="cls-1" d="M249.94,270.93c-2.14-.91-4.08-1.65-5.91-2.58a1.77,1.77,0,0,1-.36-1.66,1.73,1.73,0,0,1,1.54-.68,39.12,39.12,0,0,1,5.31,2.11,1.84,1.84,0,0,1,.68,1.59C251.12,270.17,250.41,270.51,249.94,270.93Z"/><path class="cls-1" d="M208.83,167.35c-.93,2.11-1.7,4-2.64,5.84a1.6,1.6,0,0,1-1.51.37c-.44-.26-1-1.12-.82-1.5a42.63,42.63,0,0,1,2.34-5.53c.18-.35,1.17-.53,1.68-.39S208.54,167,208.83,167.35Z"/><path class="cls-1" d="M309,263.9c.47.5,1,.85,1.18,1.33a1.57,1.57,0,0,1-.44,1.39,56.56,56.56,0,0,1-5.58,2.6c-.35.14-1.15-.32-1.43-.72s-.15-1.29.1-1.43C304.84,266,306.88,265,309,263.9Z"/><path class="cls-1" d="M210.6,162.75c-1.31-.06-2-1-1.42-2a40.59,40.59,0,0,1,3.07-4.79,1.93,1.93,0,0,1,1.81-.3,1.7,1.7,0,0,1,.48,1.6,57.89,57.89,0,0,1-3.07,5C211.27,162.56,210.76,162.67,210.6,162.75Z"/><path class="cls-1" d="M328.57,249.85c.3.23.86.44,1,.8a1.73,1.73,0,0,1-.13,1.49,50.76,50.76,0,0,1-4.28,4,1.61,1.61,0,0,1-1.57-.12c-.33-.3-.56-1.3-.35-1.54,1.44-1.56,3-3,4.53-4.44C327.91,249.93,328.18,250,328.57,249.85Z"/><path class="cls-1" d="M231.08,139.6c-.05,1-4.57,4.58-5.52,4.44a1.29,1.29,0,0,1-.78-2.22,36.25,36.25,0,0,1,4.29-3.53A1.35,1.35,0,0,1,231.08,139.6Z"/><path class="cls-1" d="M328.56,190.24c1-.77,1.52-1.45,2.12-1.54,1.14-.19,1.4.7,1.4,1.67s-.39,1.75-1.35,1.58C330.09,191.84,329.58,191.08,328.56,190.24Z"/><path class="cls-1" d="M328.68,177.54c.92-.67,1.47-1.4,2-1.35s1.38.89,1.32,1.27a2.21,2.21,0,0,1-1.32,1.53C330.26,179.1,329.61,178.27,328.68,177.54Z"/><text class="cls-3" transform="translate(176.17 320.73) scale(0.83 1.05)">رطملا فرص لامعا</text></svg>