<svg id="Layer_1" data-name="Layer 1" xmlns="http://www.w3.org/2000/svg" viewBox="0 0 540 520"><defs><style>.cls-1{fill:#095f61;}.cls-2,.cls-3{fill:#6e4e26;}.cls-3{font-size:29.41px;font-family:29LTBukra-Bold, "29LT Bukra";font-weight:700;}</style></defs><path class="cls-1" d="M233.12,129.66c.57-.27,1.15-.77,1.72-.78,13.22,0,26.43,0,39.65,0,1.24,0,1.81.47,1.8,1.75q-.06,5,0,10c0,1.25-.51,1.8-1.77,1.78-2.06,0-4.12,0-6.26,0v24.57c2.2,0,4.35,0,6.49,0,.35,0,.73-.41,1-.7.92-1,1.73-2.08,2.73-3a6.84,6.84,0,0,1,4.83-1.72c3.28.06,6.56.09,9.84,0a8.13,8.13,0,0,1,6.62,3c2.89,3.25,4.23,7.23,5.21,11.57l-2.45.58c-.87-2.33-1.54-4.57-2.53-6.65a15.88,15.88,0,0,0-2.79-4.08c-2.15-2.26-4.65-2.21-6.86,0-2.66,2.63-3.93,6-4.74,9.52-2,8.56-1.81,17,1.51,25.27a16.69,16.69,0,0,0,3.09,4.84c2.45,2.71,5.17,2.48,7.76-.65a23.84,23.84,0,0,0-3.28-.14,4.18,4.18,0,0,1-4.61-2.75,34.81,34.81,0,0,1-2.39-7.89,73.69,73.69,0,0,1-.57-11.41,31.63,31.63,0,0,1,2.1-11.19,12.26,12.26,0,0,1,1.45-2.72c1.84-2.56,4.67-2.64,6.25.08a35.36,35.36,0,0,1,2.73,7.1,30.54,30.54,0,0,1,.73,4.46h12.4a28.3,28.3,0,0,1,27.11,22.72,35.16,35.16,0,0,1,.54,5.89c.07,7,0,14,0,21.05v1.53h-2.66v-7.89c-2.56,1.84-4.8,1.79-6.95-.29a1.73,1.73,0,0,0-2.45.07c-2.91,2.33-5,2.17-7.41-.6-.59-.67-1.15-1.36-1.77-2.08l2-1.79c.71.8,1.4,1.6,2.11,2.38,1.07,1.19,1.9,1.23,3.1.16q3.19-2.85,6.49,0c1.13,1,1.93.89,3-.15a5.44,5.44,0,0,0,1.85-4.62c-.23-3.63,0-7.29-.31-10.91-.88-10.85-9.76-20.45-20.49-22.27a37.48,37.48,0,0,0-5.89-.52c-6.52-.06-13,0-19.55,0h-1.65v4.59h1.43c5.75,0,11.51-.16,17.25,0,7.37.26,13.18,3.65,17.74,9.62l-1.08.82c-.36.26-.74.51-1,.67-1.66-1.55-3.16-3.18-4.88-4.51a19,19,0,0,0-11.66-3.93c-5.62-.08-11.24,0-16.86,0-.26,0-.52,0-.91.08l.63,4.39h14l-.5,2.68H291.11a22.28,22.28,0,0,0,2,3.8,3.23,3.23,0,0,0,2.3.63,14.63,14.63,0,0,1,11.78,5.21,14,14,0,0,1,3.58,9.35c0,6.39,0,12.78,0,19l7.27-.77V228h2.71c0,2.11.07,4.25,0,6.39a2.22,2.22,0,0,0,1.4,2.51c1.78.81,3.4,2.08,5.24,2.59,2.95.83,5.6-.28,8.05-2a11.76,11.76,0,0,1,13.18-.89,15,15,0,0,1,1.79,1.19,9.43,9.43,0,0,0,11.95-.23c2.09-1.64,4.13-3.34,6.25-4.93a2,2,0,0,1,1.66-.42,2.13,2.13,0,0,1,.88,1.61q.08,15.86,0,31.72c0,.54-.49,1.07-.75,1.61H233.12ZM368.4,264.34v-28c-1.26,1-2.44,1.83-3.51,2.78a12.53,12.53,0,0,1-16.52.54c-3.44-2.67-7.69-2.51-11.27,0-5.43,3.85-10.27,3.84-15.75,0a9.33,9.33,0,0,0-11.4.1c-5.08,3.71-10.34,3.74-15.43.07-3.82-2.76-7.89-2.71-11.73,0a15.62,15.62,0,0,1-4,2.13,11.84,11.84,0,0,1-11.18-2c-3.78-2.76-7.92-2.85-11.51-.33-5.87,4.14-11,4-16.59-.49-1.1-.88-2.21-1.74-3.48-2.74v28ZM265.45,204.72h-1.18c-5.35,0-10.69,0-16,0a6.1,6.1,0,0,1-4.37-1.76,14.55,14.55,0,0,1-3.69-6.18,35.66,35.66,0,0,1-1.27-16.63,22.33,22.33,0,0,1,3.41-9.69,7.31,7.31,0,0,1,6.63-3.59c5,.15,10.07,0,15.1,0h1.37V142.43H235.82V207c0,8.19,0,16.37,0,24.56a2,2,0,0,0,.87,1.79c1.58,1.18,3.1,2.46,4.64,3.69,4.41,3.52,8.41,3.6,13,.32a11.83,11.83,0,0,1,9.56-2.13c.5.1,1,.18,1.57.28Zm2.88,0a1.83,1.83,0,0,0-.13.41q0,15.57,0,31.16a1.63,1.63,0,0,0,.57,1.07,9.45,9.45,0,0,0,12.15.33,14.29,14.29,0,0,1,2.64-1.6,11.93,11.93,0,0,1,12.55,1.51c3.58,2.63,7.78,2.85,11.16.55a1.81,1.81,0,0,0,.79-1.23c0-6.83.16-13.67,0-20.5-.15-4.87-2.68-8.41-7.1-10.61l-.84,1a8.52,8.52,0,0,1-7.14,3.35c-3.23-.12-6.47-.06-9.7,0a6.66,6.66,0,0,1-4.6-1.59c-1-.9-1.88-2-2.85-3a2.24,2.24,0,0,0-1.24-.78C272.5,204.67,270.44,204.72,268.33,204.72Zm5.5-35.1h-1.62c-7.45,0-14.91.12-22.37-.06a5.85,5.85,0,0,0-6,3.67,19,19,0,0,0-1.06,2.46,32.19,32.19,0,0,0-1.27,14.9,20.25,20.25,0,0,0,3.25,9.31A4.77,4.77,0,0,0,249,202c7.1-.06,14.2,0,21.29,0h3.5a45.81,45.81,0,0,1,0-32.4Zm14-5.37c-1.43,0-2.68.05-3.93,0a5.05,5.05,0,0,0-4.62,2,29,29,0,0,0-3.5,6.14,40.39,40.39,0,0,0-1.88,18.86,28.27,28.27,0,0,0,3.29,11.29c3.12,5.38,4.9,5.18,10.59,4.68C279.48,194.19,279.46,178.19,287.84,164.25Zm-14.32-32.61h-37.6v7.94h37.6Zm24.1,48.72c-.32-1.76-.5-3.46-.94-5.09a24.18,24.18,0,0,0-1.72-4.49c-.73-1.45-1.41-1.43-2.28-.08a5.51,5.51,0,0,0-.78,1.55c-.73,2.65-1.4,5.31-2.12,8.11Z"/><path class="cls-2" d="M353.08,223.16a5.38,5.38,0,0,1-5.42-5.36,5.45,5.45,0,0,1,5.32-5.49,5.55,5.55,0,0,1,5.53,5.46A5.45,5.45,0,0,1,353.08,223.16Zm2.61-5.47a2.58,2.58,0,0,0-2.69-2.56,2.63,2.63,0,1,0,2.69,2.56Z"/><path class="cls-2" d="M320.81,214.92h-2.7a18.44,18.44,0,0,0-4.41-11.52l2.06-1.82A20.47,20.47,0,0,1,320.81,214.92Z"/><path class="cls-2" d="M295.15,231.26a5.37,5.37,0,0,1-5.2-5.57,5.44,5.44,0,0,1,5.53-5.28,5.56,5.56,0,0,1,5.31,5.68A5.46,5.46,0,0,1,295.15,231.26Zm2.82-5.4a2.56,2.56,0,0,0-2.62-2.63,2.63,2.63,0,1,0,2.62,2.63Z"/><text class="cls-3" transform="translate(223.29 326.12) scale(0.83 1.05)">فرصلا لامعا<tspan x="181.54" y="0"> </tspan></text></svg>