<svg id="Layer_1" data-name="Layer 1" xmlns="http://www.w3.org/2000/svg" viewBox="0 0 540 520"><defs><style>.cls-1{fill:#095f61;}.cls-2,.cls-3{fill:#6e4e26;}.cls-3{font-size:29.41px;font-family:29LTBukra-Bold, "29LT Bukra";font-weight:700;}</style></defs><path class="cls-1" d="M335.86,242.51v-28.9H288.1c-2.88,0-3.77-.72-3.77-3.09V151.89c0-2.31.89-3.07,3.61-3.07h25V116.06c0-2.53.83-3.24,3.77-3.24h84.16c2.93,0,3.76.72,3.76,3.24v32.76h24.88c2.89,0,3.77.72,3.77,3.08v58.63c0,2.36-.89,3.08-3.78,3.08H381.86v28.87l1.41-1.24c6-5.21,15.56-4.8,20.83.89a8.43,8.43,0,0,0,12.66,0c5.8-6.18,16.77-6,22,.51a5.29,5.29,0,0,0,5.13,2.27c2.85-.2,3.75.68,3.75,3v10.65c0,2.29-.91,3.05-3.64,3.05H273.91c-3.1,0-3.9-.68-3.91-3.27q0-5.32,0-10.65c0-2.08,1-2.86,3.47-2.88a4.19,4.19,0,0,1,.71,0,4.24,4.24,0,0,0,4.44-1.92c5.56-7,16.59-7.13,22.64-.4,2.82,3.15,9.14,3.32,11.79.17,5.52-6.59,16.63-6.7,22.21-.6A5.33,5.33,0,0,0,335.86,242.51Zm.05-33.75c-15.58-12.22-14.32-30.77-2-41.45,12.57-10.93,33-12,46.71-2.48,7.25,5.07,11.54,11.55,12.44,19.41,1.11,9.58-2.83,17.7-11.31,24.5h17.11v-91h-80v91Zm105.94,40.71c-3.78.93-5.58-.9-7-3.21a3.47,3.47,0,0,0-.31-.36c-3.66-4.52-9.88-4.78-13.57-.27-4.36,5.34-16.68,5.36-21.09,0a8.34,8.34,0,0,0-13.23-.05c-4.42,5.45-16.81,5.42-21.2,0a8.31,8.31,0,0,0-13.12,0c-4.42,5.51-16.9,5.49-21.31,0a8.31,8.31,0,0,0-13.12.06c-4.4,5.45-16.81,5.42-21.2,0-3.61-4.44-9.9-4.19-13.45.28-1.77,2.23-3.23,4.74-7.38,3.64v7.23h166ZM341.71,244.7c3.86.31,5.66-1,5.66-4.1V208.89h5.71V238.6a17.07,17.07,0,0,1,11.52,0V225.69h5.69v1.55c0,4.74.07,9.49-.05,14.24a2.59,2.59,0,0,0,2,2.69,30.43,30.43,0,0,0,3.54.81,3,3,0,0,0,.23-.67c0-13.64.27-27.28-.11-40.92-.27-9.41-11-15.63-21.72-13.19-7.5,1.71-12.52,7.41-12.53,14.37q0,19.41,0,38.82C341.64,243.83,341.68,244.27,341.71,244.7Zm-28.85-35.95v-55H290.15v55Zm91.94-55.07v55h22.7v-55Zm-23.24,47.71c7.81-7.64,8.78-22.33-3.24-31.69-12.23-9.53-31.57-8.31-41.89,2.59-9.64,10.18-6.65,23.54-.48,28.81.63-1.59,1.33-3.22,1.9-4.88a2.23,2.23,0,0,0-.16-1.54,17.8,17.8,0,0,1-1.8-8c.12-11.41,13.19-20.55,26.57-18.53,13,1.95,21.33,11.65,18.77,22.49-.82,3.49-1.51,6.67.15,10A4,4,0,0,1,381.56,201.39ZM342.3,190.44c11.13-7.66,22.13-7.62,33.12,0,1.74-5.78-1.09-11.86-7-15.2a19.81,19.81,0,0,0-19.89.46C343,179.14,340.39,185.39,342.3,190.44Z"/><path class="cls-2" d="M350.23,129.62c0-1.64,0-3.13,0-4.61,0-1.71,1.05-2.57,3.1-2.58,3.7,0,7.39,0,11.09,0,1.92,0,2.94.91,3,2.53s0,3,0,4.66c1.88,0,3.65,0,5.42,0,2.14,0,3.16.87,3.17,2.67,0,3,0,6.09,0,9.14,0,1.69-1.08,2.54-3.12,2.57-1.72,0-3.45,0-5.47,0,0,1.46,0,2.89,0,4.31,0,2.08-1,2.88-3.47,2.88-3.46,0-6.92,0-10.38,0-2.36,0-3.32-.83-3.34-2.84,0-1.3,0-2.59,0-3.89A2.31,2.31,0,0,0,350,144c-1.69,0-3.46,0-5.23,0-2.14,0-3.15-.87-3.17-2.67q0-4.58,0-9.15c0-1.69,1.06-2.54,3.11-2.56C346.49,129.6,348.22,129.62,350.23,129.62Zm20,4.8c-1.92,0-3.69,0-5.47,0-2,0-3-.89-3.08-2.6,0-1.48,0-3,0-4.5H356c0,1.48,0,2.87,0,4.26,0,2-1,2.83-3.34,2.84-1.71,0-3.42,0-5.13,0v4.8h5.3c2.13,0,3.14.88,3.16,2.68,0,1.48,0,3,0,4.4h5.73c0-1.47,0-2.81,0-4.16,0-2.1.95-2.9,3.42-2.92h5.13Z"/><path class="cls-2" d="M359,196.89h5.51v14.2H359Z"/><text class="cls-3" transform="translate(265.08 311.78) scale(0.83 1.05)">سيساتو ءاشنا<tspan x="-19.29" y="33.62"> </tspan><tspan x="-10.47" y="33.62">اهتنايصو تارابعلا</tspan><tspan x="236.75" y="33.62"> </tspan></text></svg>