<svg id="Layer_1" data-name="Layer 1" xmlns="http://www.w3.org/2000/svg" viewBox="0 0 540 520"><defs><style>.cls-1{fill:#095f61;}.cls-2,.cls-3{fill:#6e4e26;}.cls-3{font-size:29.41px;font-family:29LTBukra-Bold, "29LT Bukra";font-weight:700;}</style></defs><path class="cls-1" d="M190,168.77V157.44h-8.28c-1.3,0-2.6,0-3.9,0a6.77,6.77,0,0,1-6.87-6.64q-.08-13.63,0-27.26a6.64,6.64,0,0,1,6.73-6.57c4.05-.07,8.11,0,12.4,0,0-1.39,0-2.63,0-3.87a4.76,4.76,0,0,1,5.05-5c2.66,0,5.31,0,8,0a4.69,4.69,0,0,1,5,4.81c0,1.25,0,2.5,0,3.89h76.57c0-1.19,0-2.37,0-3.55.12-3.34,2-5.14,5.46-5.16,2.48,0,5,0,7.44,0,3.08,0,5,1.68,5.22,4.66.1,1.3,0,2.61,0,4.2h9.55c7.62,0,9.69,2,9.69,9.48q0,11.65,0,23.31c0,5-2.86,7.7-8,7.7H303v11.33c3.84,0,7.6,0,11.36,0,4.77,0,7.71,2.82,7.72,7.46q0,12.77,0,25.54c0,4.66-2.89,7.46-7.69,7.49-3.76,0-7.52,0-11.4,0v25.9c1.95.87,3.93,1.37,5.36,2.51,1.67,1.33,1.56,3.41.75,5.32,4.25,1.59,6,4.49,4.92,7.9a6,6,0,0,1-5.94,4.26H280.94c-3.44,0-6-2-6.58-5s1.2-5.63,4.36-6.82c.22-.08.44-.14.82-.26-.74-1.71-1-3.57.37-4.94,1.13-1.15,2.76-1.85,4.6-3V209.38H208.23v25.73c1.76.91,3.64,1.5,5,2.67,1.52,1.31,1.42,3.28.6,5.18,3.07.89,5.06,2.7,5.2,5.91a6,6,0,0,1-6.09,6.25c-2.52.06-5.05,0-7.23,0,.86,1.21,2.2,2.39,2.61,3.82.88,3.09-1.55,5.77-4.94,5.78-6,0-12,0-18.06,0h-25c-3.13,0-5.14-1.48-5.63-4.11-.42-2.27,1.09-4.3,3.85-5.44a3,3,0,0,0,1.36-1.53q8-18.39,16-36.8c1.5-3.45,4.34-4.88,7.57-3.84a5.88,5.88,0,0,1,3.62,3.52,57.17,57.17,0,0,0,2.76,5.76V209.26c-3.93,0-7.81,0-11.69,0a7.08,7.08,0,0,1-5.27-2,6.2,6.2,0,0,1-2.05-4.58c0-9.14,0-18.28,0-27.42a6.69,6.69,0,0,1,6.81-6.5C181.73,168.74,185.74,168.77,190,168.77Zm18.22-.1h76.36V157.53H208.17Zm-14.36,2.7c-5.58,0-10.82-.08-16.06,0-2.68.06-4.22,1.73-4.24,4.51q-.09,13.11,0,26.21c0,2.93,1.77,4.5,4.79,4.6,1.71.05,3.42,0,5.13,0,1.09,0,1.49-.33,1.75-1.38,1.8-7.3,3.7-14.59,5.56-21.88C191.75,179.53,192.75,175.56,193.81,171.37Zm0-51.93H179.37c-4.35,0-5.89,1.47-5.89,5.63q0,12.15,0,24.3a13,13,0,0,0,.07,1.53,4.14,4.14,0,0,0,4.32,3.91c1.82.07,3.65,0,5.48,0,1.13.05,1.6-.3,1.88-1.44,1.78-7.3,3.67-14.57,5.53-21.86C191.77,127.59,192.78,123.62,193.84,119.44ZM308,171.37c-3,11.82-6,23.5-9,35.33,5.52,0,10.82.1,16.11,0a4.08,4.08,0,0,0,4.17-4.4q0-13.26,0-26.53a4.08,4.08,0,0,0-4.22-4.33C312.76,171.28,310.46,171.37,308,171.37Zm-9-16.6c5.69,0,11.1.08,16.51,0,2.29,0,3.75-1.91,3.76-4.37q0-13.19,0-26.36a4.19,4.19,0,0,0-4.27-4.5c-2.28-.15-4.58,0-7,0C305,131.2,302,142.88,299,154.77Zm-73.13,16.56c-4.3,0-8.35,0-12.4,0-1.2,0-1.71.29-2,1.51-2.49,10.07-5.09,20.11-7.65,30.17-.3,1.18-.56,2.38-.86,3.68h13.94C219.87,195,222.83,183.31,225.88,171.33Zm64.08,0c-4.58,0-8.93,0-13.28.06-.36,0-.9.76-1,1.25q-4.25,16.32-8.39,32.66a8,8,0,0,0-.12,1.36H281C283.94,195,286.91,183.32,290,171.34Zm-46.07.07c-3,11.72-6,23.41-9,35.32,4.55,0,8.89,0,13.24-.06.36,0,.91-.75,1-1.23q4.26-16.38,8.41-32.79a7.67,7.67,0,0,0,.08-1.24Zm46.07-52c-4.34,0-8.4,0-12.46,0-1.28,0-1.68.43-2,1.57-2,8.24-4.16,16.46-6.25,24.69-.75,3-1.5,5.94-2.32,9.16,4.32,0,8.38-.05,12.43,0a1.68,1.68,0,0,0,2-1.55c1.22-5,2.52-9.94,3.78-14.92C286.75,132.17,288.32,125.94,290,119.44Zm-87,35.28c.74.05,1.26.11,1.78.11,3.47,0,7-.06,10.42,0a1.85,1.85,0,0,0,2.23-1.69c2-8.19,4.15-16.35,6.23-24.52.76-3,1.49-6,2.28-9.21-4.48,0-8.72,0-13,.06-.46,0-1.17.79-1.31,1.32-2.17,8.27-4.27,16.56-6.38,24.84Zm32,.11c4.29,0,8.4,0,12.52,0,1.14,0,1.59-.32,1.87-1.46,2-8.25,4.15-16.47,6.25-24.71.77-3,1.53-6,2.33-9.18h-14C240.93,131.21,238,142.91,234.92,154.83ZM209.09,119.5c-3.63,0-7,.09-10.42,0-1.6-.06-2.25.41-2.62,1.92-2.06,8.4-4.23,16.78-6.36,25.17-.67,2.68-1.32,5.36-2,8.12h12.47C203.13,143,206.08,131.36,209.09,119.5Zm55.14,35.16,8.94-35.16c-3.68,0-7.1.1-10.51,0-1.67-.07-2.19.58-2.54,2-1.94,7.86-4,15.7-6,23.55-.81,3.19-1.58,6.38-2.4,9.66Zm19.52.09c3.82,0,7.35-.07,10.88,0,1.35,0,1.76-.44,2.06-1.66,1.89-7.68,3.9-15.34,5.86-23,.88-3.46,1.73-6.93,2.62-10.52H292.7C289.73,131.23,286.77,142.87,283.75,154.75Zm-64.07,0c3.85,0,7.44-.05,11,0,1.18,0,1.59-.38,1.86-1.46,1.92-7.74,3.93-15.46,5.9-23.18.88-3.46,1.72-6.93,2.62-10.53H228.62C225.66,131.22,222.7,142.86,219.68,154.75Zm32,51.88c3.74,0,7.15-.08,10.55,0,1.52.05,2.13-.41,2.48-1.85,1.67-6.93,3.48-13.83,5.23-20.74,1-4.14,2.07-8.28,3.13-12.51H260.61C257.65,183.21,254.71,194.76,251.7,206.63Zm-42.65-35.19c-3.72,0-7.14.08-10.56,0a2,2,0,0,0-2.45,1.86c-2,8.37-4.22,16.71-6.33,25.06-.68,2.68-1.33,5.38-2.05,8.31,3.73,0,7.2-.09,10.66,0,1.52.06,2-.51,2.32-1.82,1.45-6,3-11.95,4.52-17.92C206.44,181.84,207.71,176.76,209.05,171.44Zm96.13,0c-3.74,0-7.31.05-10.88,0-1.23,0-1.73.33-2,1.51-1.19,4.92-2.5,9.82-3.75,14.74-1.58,6.23-3.14,12.46-4.78,19,3.74,0,7.31,0,10.89,0a1.67,1.67,0,0,0,2-1.53c1.32-5.43,2.76-10.82,4.13-16.23C302.24,183.16,303.67,177.42,305.18,171.44Zm-64.08,0c-3.88,0-7.46.05-11,0-1.22,0-1.58.47-1.83,1.5-1.08,4.43-2.24,8.84-3.36,13.25-1.71,6.73-3.41,13.46-5.16,20.35.65.05,1.16.11,1.67.11,3.06,0,6.12,0,9.19,0,1.22,0,1.73-.33,2-1.52,1.32-5.43,2.76-10.82,4.13-16.23C238.16,183.17,239.59,177.43,241.1,171.44Zm46.37,64.13H300V209.39H287.47Zm-82.18.1V209.39H192.74v1.94c0,4.51.19,9-.06,13.53a18.93,18.93,0,0,0,2.34,9.83,1.79,1.79,0,0,0,1.2.94C199.22,235.71,202.22,235.67,205.29,235.67Zm-4.36,19.42c-1-2.22-1.82-4.32-2.79-6.38a1.67,1.67,0,0,0-1.24-.65q-15.27,0-30.56,0c-.37,0-1,.11-1.08.33-1,2.18-2,4.39-3,6.71Zm93.33-9.51c-4.41,0-8.83,0-13.25,0-2.72,0-4.28,1.73-3.93,4.13.27,1.83,1.78,2.9,4.33,2.91q12.9,0,25.79,0a6.81,6.81,0,0,0,1.75-.2,3.15,3.15,0,0,0,2.55-2.91c.24-2.32-1.33-3.9-4-3.93C303.1,245.55,298.68,245.58,294.26,245.58ZM181.78,257.84v0H159.85c-1.4,0-2.29.57-2.41,1.94s.71,2.22,2.16,2.38a17.16,17.16,0,0,0,1.76.05h40.51c.53,0,1.06,0,1.59,0a2.19,2.19,0,0,0,2.37-2.25c0-1.31-1-2.07-2.65-2.07Zm11.94-19.31c-.9-2.11-1.63-4-2.5-5.76a1.91,1.91,0,0,0-1.39-.89c-5.49-.06-11,0-16.45,0a1.67,1.67,0,0,0-1.25.6c-.93,1.95-1.75,3.95-2.66,6.07ZM300,168.68V157.57H287.46v11.11Zm-94.68,0V157.53H192.86v11.15ZM196.7,245.5c-.57-1.35-1-2.57-1.64-3.72a1.57,1.57,0,0,0-1.19-.63q-12.21-.06-24.41,0c-.42,0-1.08.14-1.22.41-.63,1.24-1.11,2.54-1.7,3.95Zm97.49-2.59c3.36,0,6.71,0,10.07,0,1.54,0,2.55-.58,2.59-2.14a2.21,2.21,0,0,0-2.48-2.33q-10.08-.09-20.15,0a2.24,2.24,0,0,0-2.51,2.31c0,1.37.88,2.13,2.58,2.15C287.59,242.93,290.89,242.91,294.19,242.91Zm-94.43,2.64c1,2.23,1.73,4.19,2.66,6.08a2,2,0,0,0,1.45.84q4.42.1,8.84,0a3.32,3.32,0,0,0,3.6-3.39,3.36,3.36,0,0,0-3.5-3.52C208.56,245.51,204.32,245.55,199.76,245.55ZM300.13,116.84c0-1.48.05-2.74,0-4a2,2,0,0,0-2.08-2.1c-2.89,0-5.79-.12-8.66.08a2.81,2.81,0,0,0-1.91,1.78,19.82,19.82,0,0,0-.08,4.23Zm-94.75,0a21.88,21.88,0,0,0-.08-4.31,2.6,2.6,0,0,0-1.79-1.67,73.82,73.82,0,0,0-8.8,0,2.58,2.58,0,0,0-1.83,1.61,22.79,22.79,0,0,0-.09,4.38Zm-8.71,121.57a40.17,40.17,0,0,0,1.66,3.73,1.79,1.79,0,0,0,1.35.71c3.18.06,6.36,0,9.55,0a2.22,2.22,0,1,0,.29-4.44C205.31,238.31,201.08,238.38,196.67,238.38Zm-7.08-9.26c-.54-1.27-.94-2.4-1.5-3.44a1.61,1.61,0,0,0-1.19-.68q-5.31-.08-10.61,0a1.63,1.63,0,0,0-1.16.72c-.56,1-1,2.15-1.51,3.4Zm-2.89-6.88a58.87,58.87,0,0,0-2.56-5.56,3,3,0,0,0-5.12.07c-1,1.71-1.65,3.59-2.5,5.49Z"/><path class="cls-2" d="M251.64,264.75H230.4c-3.07,0-5.19-1.47-5.64-3.89s.94-4.51,3.77-5.65a3,3,0,0,0,1.39-1.51c4.19-9.58,8.32-19.19,12.48-28.78,1.14-2.63,2.38-5.21,3.45-7.86s2.76-4.31,5.71-4.33,4.7,1.8,5.83,4.42c5.21,12.13,10.52,24.22,15.76,36.35a3.1,3.1,0,0,0,2.08,2,4.65,4.65,0,0,1,3.22,5.26,4.9,4.9,0,0,1-4.86,4C266.27,264.77,259,264.75,251.64,264.75Zm-19.37-9.68h38.64c-1-2.23-1.81-4.33-2.79-6.39a1.62,1.62,0,0,0-1.25-.62q-15.21,0-30.43,0a1.83,1.83,0,0,0-1.39.69C234.07,250.75,233.24,252.81,232.27,255.07Zm19.33,2.77c-7.19,0-14.38,0-21.57,0-1.46,0-2.41.46-2.59,1.93a2.06,2.06,0,0,0,2.32,2.39q21.83.06,43.66,0a2.07,2.07,0,0,0,2.33-2.39c-.16-1.49-1.13-1.94-2.58-1.94C266,257.85,258.79,257.84,251.6,257.84Zm12.15-19.27c-.92-2.15-1.71-4.1-2.63-6a1.78,1.78,0,0,0-1.36-.71c-5.42-.05-10.85,0-16.28,0-.45,0-1.18.2-1.32.51-.95,2-1.77,4-2.7,6.2Zm-27.22,6.82h30.12a26.11,26.11,0,0,0-1.45-3.28,2.22,2.22,0,0,0-1.54-1q-12.11-.09-24.2,0a1.8,1.8,0,0,0-1.34.7C237.51,242.93,237.09,244.11,236.53,245.39Zm23-16.24a25.4,25.4,0,0,0-1.35-3.16,2.2,2.2,0,0,0-1.48-1c-3.47-.08-6.94-.06-10.4,0a1.47,1.47,0,0,0-1.12.49c-.59,1.12-1,2.32-1.62,3.67Zm-2.87-6.89c-.88-1.95-1.55-3.84-2.54-5.55a3,3,0,0,0-5.13,0,59.43,59.43,0,0,0-2.53,5.54Z"/><path class="cls-2" d="M164.37,121.1c-.7-.77-1.42-1.21-1.59-1.79a11.63,11.63,0,0,0-8.62-8.45,2,2,0,0,1-1.19-1.55,2.14,2.14,0,0,1,1.31-1.49,11.55,11.55,0,0,0,8.46-8.17c.19-.6,1-1.41,1.58-1.39a2.34,2.34,0,0,1,1.56,1.44,11.57,11.57,0,0,0,8.31,8.11,2.53,2.53,0,0,1,1.54,1.65c.07.42-.86,1.3-1.5,1.48a11.33,11.33,0,0,0-8.35,8.25C165.7,119.8,165,120.28,164.37,121.1Zm-5.9-11.73,5.79,5.69,5.89-5.67-5.86-5.7Z"/><path class="cls-2" d="M316,215.72a6.77,6.77,0,0,1,6.8,6.69,6.94,6.94,0,0,1-6.93,6.63,6.8,6.8,0,0,1-6.84-6.85A6.69,6.69,0,0,1,316,215.72Zm4,6.7a4.15,4.15,0,1,0-4.18,4A4,4,0,0,0,320,222.42Z"/><path class="cls-2" d="M168.06,211a6.7,6.7,0,0,1-6.88,6.58,6.67,6.67,0,1,1,.14-13.32A6.74,6.74,0,0,1,168.06,211Zm-2.7,0a4.16,4.16,0,0,0-8.31-.09,4.16,4.16,0,0,0,8.31.09Z"/><path class="cls-1" d="M235.75,229.56c-.14.37-.25.75-.41,1.11-1.78,4.14-3.58,8.28-5.37,12.43-.38.88-.83,1.81-2,1.35s-.84-1.44-.46-2.32c1.81-4.19,3.59-8.4,5.49-12.56a2.92,2.92,0,0,1,1.76-1.24c.46-.13,1.09.33,1.65.53Z"/><path class="cls-1" d="M167.06,141.05c0,1.89.11,3.78-.05,5.65-.06.62-.79,1.18-1.21,1.76-.44-.56-1.25-1.12-1.27-1.69-.11-3.88-.11-7.77,0-11.65,0-.56.83-1.09,1.28-1.64.42.58,1.14,1.14,1.19,1.76C167.16,137.16,167.06,139.11,167.06,141.05Z"/><path class="cls-1" d="M239.56,221.06a35.16,35.16,0,0,1-1.64,3.36,1.46,1.46,0,0,1-1.34.4c-.41-.21-.93-.92-.83-1.27a12.88,12.88,0,0,1,1.39-3.27c.19-.31,1.06-.44,1.53-.32S239.26,220.67,239.56,221.06Z"/><path class="cls-1" d="M164.13,128.41c.55-.58,1.06-1.62,1.65-1.66,1.24-.11,1.32,1,1.29,2,0,.4.13.89-.06,1.17a8.54,8.54,0,0,1-1.34,1.27,7.53,7.53,0,0,1-1.14-1.27c-.18-.31,0-.79,0-1.19Z"/><text class="cls-3" transform="translate(162.72 325.47) scale(0.83 1.05)">قرطلا هنايص<tspan x="172.57" y="0"> </tspan></text></svg>