<svg id="Layer_1" data-name="Layer 1" xmlns="http://www.w3.org/2000/svg" viewBox="0 0 540 520"><defs><style>.cls-1{fill:#095f61;}.cls-2{font-size:29.41px;fill:#6e4e26;font-family:29LTBukra-Bold, "29LT Bukra";font-weight:700;}</style></defs><path class="cls-1" d="M238,223.63c-2.3-3.27-4.52-6.22-6.51-9.31-4.23-6.54-4.82-13.6-2.67-21,.53-1.83,1.76-2.4,3.58-1.87,5.2,1.54,9.32,7,9.78,12.8A20.21,20.21,0,0,1,240,215.65a2.43,2.43,0,0,0,.12,2c1.46,2.42,3.9,3.6,6.75,5,.81-3.89,1.76-7.5,2.27-11.17a42.52,42.52,0,0,0-.82-17.1,2.12,2.12,0,0,0-2.36-1.85c-9.25-.46-17.79-3-25.26-8.7a4.92,4.92,0,0,0-1.66-.65c-7.53-2-12.73-6.41-14.41-14.31a11.56,11.56,0,0,1,1.06-7.57c1-2.05,2.33-2.53,4.31-1.46A25.54,25.54,0,0,1,223.6,178.6a2.65,2.65,0,0,0,.75,1.52c6,4.43,12.81,6.54,20.15,7.18a3.19,3.19,0,0,0,.58-.13c-1.23-2-2.27-3.64-4.82-4.36-6.74-1.89-11.38-6.2-13.08-13.18a11.94,11.94,0,0,1,.95-8.39c1-1.92,2.28-2.4,4.21-1.4,7.79,4,12.54,10.27,13.79,19a4.17,4.17,0,0,0,.49,1.53c1.57,2.52,3.19,5,4.8,7.51.2.31.42.6.66.94,3.7-7.13,2.68-14.84-2.69-20.41-2-2.1-4.13-4.16-6.3-6.13s-4.48-3.8-6.72-5.69L237,156c-1.41.47-2.79,1.05-4.23,1.38-4.78,1.08-8.76-.54-12.26-3.78a11.73,11.73,0,0,0-3.25-2.09c-6.81-2.92-11.37-7.63-11.91-15.3a16.66,16.66,0,0,1,1.17-6.08c.55-1.66,2.09-2.14,3.68-1.34,8.24,4.09,13.38,10.5,14.36,19.83a3.43,3.43,0,0,0,2.16,3.15,8,8,0,0,0,6.93-.11c-.83-1.22-1.59-2.29-2.3-3.4a2.64,2.64,0,0,1,.51-3.7,2.57,2.57,0,0,1,3.74.81c4.32,6.64,9.88,12.17,15.57,17.59,3.6,3.43,6.79,7.14,7.75,12.25a27.48,27.48,0,0,1-1.07,12.92c-.84,2.91-1.95,5.74-2.84,8.63a8.71,8.71,0,0,0-.49,3.37,57.49,57.49,0,0,1-1.23,17.45c-.1.47-.15.95-.24,1.5,3-1.12,3.79-.63,4.81,2.3a25.47,25.47,0,0,0,2.2,3.93l.67-.23c-.1-.62,0-1.39-.32-1.82-4.87-6.2-3.19-15,1.77-20.54a26,26,0,0,1,4.54-3.83c2.23-1.55,3.89-.91,4.65,1.66,2.36,8.05.52,15.33-3.9,22.23a34.37,34.37,0,0,0-2.6,5.83,1.37,1.37,0,0,0,.38,1.24c3.32,2.36,6.68,4.65,10.33,7.18.05-.93.09-1.39.09-1.86q0-21.06,0-42.13a5.34,5.34,0,0,0-1-2.25c-.24-.42-.76-.67-1-1.08-1.58-2.53-3.1-5.07-6.34-5.8-.46-.11-.85-.7-1.19-1.13-2.27-2.87-1.93-9.71.51-12.45a2.83,2.83,0,0,0,.63-2,16.24,16.24,0,0,0-4.35-8.92,27.82,27.82,0,0,1,13.75-45.83c15.89-4,32.27,7.5,33.89,23.82a27.77,27.77,0,0,1-6.83,21.3,19.45,19.45,0,0,0-4.64,9.56,3.09,3.09,0,0,0,.64,2.13,7.35,7.35,0,0,1,1.82,4.68c0,1.38,0,2.76,0,4.15a5.66,5.66,0,0,1-4.54,5.74,2.86,2.86,0,0,0-2,1.63c-.88,1.56-2.12,2.92-3.15,4.4a3.58,3.58,0,0,0-.84,1.8q-.07,21.39,0,42.8c0,.16,0,.33.09.79,1.25-.77,2.42-1.43,3.53-2.18,2-1.36,4-2.75,6-4.19.36-.27.77-1,.66-1.31a24.58,24.58,0,0,0-2.36-5.73c-3.3-4.84-5.39-10.05-5.14-15.94a31.24,31.24,0,0,1,1.45-7.09,2.43,2.43,0,0,1,3.73-1.48c6.89,3.75,11.76,12.36,9.2,20.57a30.44,30.44,0,0,1-2.21,4.23,9.36,9.36,0,0,0-.5,1.66l.63.29a27.18,27.18,0,0,0,2.15-4.05c.88-2.63,2-3.23,4.73-2-.39-2.41-.94-4.7-1.09-7-.24-4-.19-7.93-.35-11.89a16.83,16.83,0,0,0-.58-4.5c-1.53-4.66-3.15-9.27-3.71-14.2a19.3,19.3,0,0,1,5.84-16.4c2.63-2.68,5.49-5.16,8-8,3.26-3.66,6.26-7.55,9.38-11.33.41-.5.85-1.31,1.34-1.36a4.89,4.89,0,0,1,3,.42c1.07.71,1,2,.37,3.13s-1.58,2.38-2.38,3.57c2.61,1.79,6.52.75,8.42-1.13a2.57,2.57,0,0,0,.49-1.51c.73-9.21,5.69-15.54,13.55-19.87,2.25-1.24,3.61-.76,4.62,1.61,2.45,5.75.84,10.81-2.93,15.36a18.43,18.43,0,0,1-8.9,5.8,5.2,5.2,0,0,0-2,1.27c-4.7,4.7-9.5,5.71-15.72,3.31a1.87,1.87,0,0,0-1.63.34c-3.31,3.25-6.37,6.78-9.86,9.83-6.17,5.4-7.85,11.86-5.47,19.56.26.81.5,1.64.7,2.31,1.9-2.78,3.84-5.57,5.71-8.4a4.72,4.72,0,0,0,.47-1.74c1.45-8.29,6-14.32,13.33-18.34,2.22-1.22,3.55-.7,4.62,1.62,2.41,5.28.67,12.2-4.21,16.72a15.88,15.88,0,0,1-7.69,4.37c-2.71.5-3.95,2.31-5.48,4.8,2.29-.32,4.21-.52,6.1-.88a35.71,35.71,0,0,0,14.69-6.12,3.63,3.63,0,0,0,1.24-2.1c1.5-8.73,6.48-14.81,14.23-18.76,1.53-.78,2.82-.18,3.65,1.53,2.42,5,1.5,9.69-1.42,14.1a19,19,0,0,1-11.8,8,5.89,5.89,0,0,0-2,.94c-7.05,5.22-15.07,7.71-23.7,8.38-3.77.29-3.93.14-4.37,3.93a82.3,82.3,0,0,0-.69,11.19,50.58,50.58,0,0,0,2.82,14.84,14.39,14.39,0,0,0,6.55-4.71,2.38,2.38,0,0,0,.2-2.8c-3.23-6.79-3-13.35,1.7-19.45a11.55,11.55,0,0,1,5.95-4c1.94-.59,3.19,0,3.71,1.87,2.36,8.6,1,16.47-4.66,23.52-1.65,2.06-3.11,4.27-4.67,6.43,1.66,2,3.67,2.32,5.78.91,5.95-4,12.22-4.86,18.8-1.69a11.78,11.78,0,0,1,5.49,5.57c.8,1.62.44,3-1.18,3.76-8.24,4-16.41,4.36-24.5-.49a30.69,30.69,0,0,0-3.33-1.39,10.52,10.52,0,0,1-2.94-1.47c-2-1.79-3.84-1.71-6.33-.93-2.89.9-6.07.85-9.13,1.24a3.33,3.33,0,0,0-1.65.41c-2.67,2.29-5.28,4.67-7.91,7,.1,0,.34.08.46,0,5.8-4.12,14.28-2.35,19.24,2.31a29.42,29.42,0,0,1,4.74,6.11c1.46,2.38.5,4.08-2.36,4.57-8.58,1.46-16-.94-22.47-6.72a12.93,12.93,0,0,0-1.35-1.22,6.16,6.16,0,0,0-8.22.91,1.37,1.37,0,0,0-.31.88c0,5.07,0,10.15,0,15.37.66,0,1.19.08,1.72.08,7,0,14,0,21.07,0a1.87,1.87,0,0,0,2.12-1.46,11.27,11.27,0,0,1,21.24.11,1.78,1.78,0,0,0,2,1.35c7.57,0,15.15-.06,22.72,0a4,4,0,0,1,2.7,1.15,2.4,2.4,0,0,1-1.55,3.82,11.88,11.88,0,0,1-2.15.11H206.17a15.8,15.8,0,0,1-1.82-.05A2.44,2.44,0,0,1,202,261a2.4,2.4,0,0,1,2.46-2.38c1.65-.06,3.31,0,5.1,0a17.29,17.29,0,0,1,7.45-11.5,17,17,0,0,1,10.54-2.76c7.18.31,12.71,5.28,15.5,14.16H275.6a13.22,13.22,0,0,0,.11-1.33c0-4.37,0-8.74,0-13.11a1.79,1.79,0,0,0-1.23-2,10.36,10.36,0,0,1-1.6-.87c-3-1.69-4.85-1.41-7.38,1-6.38,6.06-13.89,8.56-22.63,7.14-3.22-.52-4.05-2.13-2.42-5,3.82-6.74,9.45-10.59,17.4-10.16,1.91.1,3.77,1.07,5.64,1.67a12.06,12.06,0,0,0,1.25.5c-2.7-2.42-5.38-4.85-8.11-7.23a1.93,1.93,0,0,0-1.24-.23,29.41,29.41,0,0,1-11.84-1.94,2.49,2.49,0,0,0-1.71.24c-2.22,1.08-4.39,2.24-6.59,3.36-.54.27-1.13.44-1.64.76-8,5-16.2,4.62-24.48.74-1.86-.87-2.25-2.25-1.26-4.1,2.3-4.31,6.11-6.47,10.79-7.05a18.82,18.82,0,0,1,14.15,3.91,2.9,2.9,0,0,0,2.19.31A17.88,17.88,0,0,0,238,223.63Zm45.13-55.18c3.15,0,6.3,0,9.45,0a1.74,1.74,0,0,0,1.31-.94A25.77,25.77,0,0,1,300,155.14a22.66,22.66,0,0,0,5.57-13.71c.9-15.66-14.91-27.47-29.68-22.25a22.7,22.7,0,0,0-9,36.81,20.39,20.39,0,0,1,5.43,10.77c.23,1.51.78,1.75,2.09,1.71C277.3,168.4,280.24,168.45,283.17,168.45Zm2.57,90V194H281v64.43ZM283.17,180c3,0,6.07,0,9.11,0,4.12,0,4.06,0,4.1-4.24,0-1.56-.48-2.15-2.09-2.13-6.63.06-13.26,0-19.89,0-4.95,0-4.3-.65-4.4,4.42,0,1.41.43,2,1.9,1.95C275.66,180,279.41,180,283.17,180ZM237.53,258.5a11.57,11.57,0,0,0-11.66-9c-5.41.31-10.38,4.46-10.75,9Zm-5.34-92.81c-.75,4.81,4.05,11.27,8.37,11.49A19.34,19.34,0,0,0,232.19,165.69Zm-18.1,62.63c3.89,2,11.42,1.85,14.14-.26C224.19,225,217.78,225.09,214.09,228.32Zm133.09-81.84c5.25-1.52,9.17-7,8.32-11.61A19.44,19.44,0,0,0,347.18,146.48Zm4.85,82c-3.48-3.63-11.28-3.11-14.31-.17C342.43,230.27,347.1,230.13,352,228.44Zm-118.7-30.52c-1.34,3.53.32,11.59,2.78,13.58C238.22,206.45,236.89,200,233.33,197.92Zm-14.41-51.46c-.71-4.46-5.17-10.39-8.44-11.36C210.3,139.84,213.78,144.57,218.92,146.46Zm129.29,31c5.36-1.75,9.11-7,8.31-11.59A20.11,20.11,0,0,0,348.21,177.42Zm-88,62.51c-4.83-1.79-11.3.46-13.49,4.58A20.54,20.54,0,0,0,260.25,239.93Zm38.93-34.64c-.92,4,.64,10.27,3.32,13.42C304.92,215,303.09,207.64,299.18,205.29Zm26.41-27.91c5.28-1.81,9.17-7.35,8.15-11.51A20.3,20.3,0,0,0,325.59,177.38Zm-6.29,67.07c-2.22-3.82-9.26-6.75-13.19-4.51C308.58,242.61,314.86,244.79,319.3,244.45ZM218,177.41a20.43,20.43,0,0,0-8.26-11.6C209.27,170.66,212.7,175.48,218,177.41ZM333.2,197.65c-3.92,3.08-5.16,9.55-2.79,13.89A20.29,20.29,0,0,0,333.2,197.65Zm-66.07,7.67c-3.86,2.58-5.81,10.44-3.17,13.31A21.06,21.06,0,0,0,267.13,205.32Zm9.75-20a7.64,7.64,0,0,0,6.72,3.52,7.34,7.34,0,0,0,6.28-3.52ZM332,258.52a5.88,5.88,0,0,0-6.1-3.58,5.34,5.34,0,0,0-4.64,3.58Z"/><path class="cls-1" d="M318.73,143.11h-.66c-2.11,0-3.28-1-3.27-2.62s1.17-2.59,3.29-2.61c.72,0,1.43,0,2.15,0a2.61,2.61,0,1,1,0,5.22C319.72,143.14,319.23,143.11,318.73,143.11Z"/><path class="cls-1" d="M247.9,143.09a10.93,10.93,0,0,1-1.81,0,2.44,2.44,0,0,1-2.29-2.4,2.36,2.36,0,0,1,2.11-2.69,13.3,13.3,0,0,1,3.78,0,2.38,2.38,0,0,1,2.22,2.63,2.46,2.46,0,0,1-2.36,2.5,10.09,10.09,0,0,1-1.65,0Z"/><path class="cls-1" d="M286,104.76c0,2.71-.81,4-2.6,4s-2.64-1.24-2.64-3.93c0-.5,0-1,0-1.49a2.61,2.61,0,1,1,5.22,0C286,103.77,286,104.26,286,104.76Z"/><path class="cls-1" d="M320.2,126.21c.07,1.65-1.11,2.27-2.35,2.82-1.4.63-2.74,1.86-4.41.62a2.5,2.5,0,0,1,.12-4.18A17,17,0,0,1,317,123.8,2.44,2.44,0,0,1,320.2,126.21Z"/><path class="cls-1" d="M270.54,111.5c-2.39-.14-2.59-2.12-3.28-3.69-.58-1.34-.66-2.58.54-3.61a2.51,2.51,0,0,1,3.91.87A18.57,18.57,0,0,1,273,108.3,2.6,2.6,0,0,1,270.54,111.5Z"/><path class="cls-1" d="M300.58,105.91a37.55,37.55,0,0,1-2.12,4.68,2.14,2.14,0,0,1-3,.61,2.37,2.37,0,0,1-1.39-2.88,18.06,18.06,0,0,1,1.29-3.39,2.22,2.22,0,0,1,3-1.15C299.22,104.17,299.83,105.16,300.58,105.91Z"/><path class="cls-1" d="M314.67,150.82a39.53,39.53,0,0,1,4.61,2,2.27,2.27,0,0,1,.67,3.1,2.3,2.3,0,0,1-2.73,1.38,16,16,0,0,1-3.54-1.35,2.14,2.14,0,0,1-1.1-2.94A10.51,10.51,0,0,1,314.67,150.82Z"/><path class="cls-1" d="M254.35,153.29c-.13,2.43-2.12,2.62-3.69,3.31-1.32.58-2.57.66-3.6-.54a2.53,2.53,0,0,1,.86-3.92,19.81,19.81,0,0,1,3.24-1.23A2.6,2.6,0,0,1,254.35,153.29Z"/><path class="cls-1" d="M254.35,126.69c0,2.16-1.6,3.5-3.16,3.07a19.81,19.81,0,0,1-3.24-1.23,2.49,2.49,0,0,1-1.26-3.34,2.53,2.53,0,0,1,3.15-1.38,11.73,11.73,0,0,1,2.91,1.13A7.68,7.68,0,0,1,254.35,126.69Z"/><path class="cls-1" d="M259.75,118.93c-2.11-.06-5.27-3-5.1-4.5a3.28,3.28,0,0,1,1.33-2.25,3,3,0,0,1,2.56.08,8.93,8.93,0,0,1,2.78,2.76,3.13,3.13,0,0,1,.07,2.58C261.06,118.3,260.08,118.69,259.75,118.93Z"/><path class="cls-1" d="M309.59,111.74a2.55,2.55,0,0,1,2.14,3.82,12.09,12.09,0,0,1-3,3,2.48,2.48,0,0,1-3.79-2.09C304.88,114.8,308,111.68,309.59,111.74Z"/><path class="cls-1" d="M285.33,137.21a16.34,16.34,0,0,1,3.57.06,4.49,4.49,0,0,1,2.5,1.51,2.31,2.31,0,0,1-.55,3c-3.73,3.84-7.45,7.69-11.21,11.51-1.26,1.29-2.68,1.35-3.81.31s-1.07-2.64.18-3.95c2.2-2.3,4.42-4.59,6.95-7.21H279a2.67,2.67,0,0,1-2.8-1.64,2.71,2.71,0,0,1,.84-3.13c3.33-3.3,6.63-6.64,10-9.94,1.32-1.31,2.86-1.35,3.95-.22a2.62,2.62,0,0,1-.28,3.82c-1.82,1.84-3.7,3.63-5.56,5.44Z"/><text class="cls-2" transform="translate(144.91 328.09) scale(0.83 1.05)">ريجشتلاو هعارزلا لامعا<tspan x="325.99" y="0"> </tspan></text></svg>