<svg id="Layer_1" data-name="Layer 1" xmlns="http://www.w3.org/2000/svg" viewBox="0 0 540 520"><defs><style>.cls-1{fill:#095f61;}.cls-2{font-size:29.41px;fill:#6e4e26;font-family:29LTBukra-Bold, "29LT Bukra";font-weight:700;}</style></defs><path class="cls-1" d="M367.29,98.1V267.49H348.75V98.1Z"/><path class="cls-1" d="M301.12,135.18h20.51c2.42,0,3.28.86,3.28,3.28v35.9c0,2.31-.89,3.19-3.19,3.19H280.35c-2.19,0-3.1-.91-3.1-3.11q0-18.1,0-36.23c0-2.1.92-3,3-3Z"/><path class="cls-1" d="M232.22,267.72a23.85,23.85,0,0,1-23.79-25.12c.27-4.55,2.42-8.55,4.65-12.42a129.16,129.16,0,0,1,16.81-22.26c1.42-1.56,3-1.75,4.31-.34C241.89,216,249,224.9,254,235.34c6.52,13.73-3.49,29.79-17.85,31.94C234.85,267.48,233.53,267.57,232.22,267.72Zm-15.87-23.34a16,16,0,0,0,15.33,15.26,2.82,2.82,0,0,0,3.16-2.48,2.7,2.7,0,0,0-2.85-2.77,10.64,10.64,0,0,1-10.38-10.31,2.74,2.74,0,0,0-2.71-2.94C217.34,241.19,216.28,242.54,216.35,244.38Z"/><path class="cls-1" d="M271.82,169.64H245.51v10.44H219c0-2.32,0-4.66,0-7,0-3.58-.05-7.14,1-10.65a26.49,26.49,0,0,1,25.5-19.29h26.39Z"/><path class="cls-1" d="M232.14,201.39c-5.07,0-10.14,0-15.21,0-2.4,0-3.25-.87-3.25-3.3q0-4.71,0-9.43c0-2.23.89-3.15,3.06-3.15h30.92c2.19,0,3.08.92,3.09,3.13q0,4.79,0,9.59c0,2.28-.91,3.16-3.23,3.16C242.4,201.4,237.27,201.39,232.14,201.39Z"/><path class="cls-1" d="M300.9,116.64H283.21c-2.45,0-3.31-.85-3.32-3.24s0-4.74,0-7.11c0-1.9,1-2.88,2.82-2.88q18.36,0,36.72,0c1.86,0,2.8,1,2.82,2.89,0,2.48,0,5,0,7.45,0,2-1,2.88-3,2.88C313.14,116.65,307,116.64,300.9,116.64Z"/><path class="cls-1" d="M277.36,224.5l-5.61,1.2a2.72,2.72,0,0,1-3.42-1.78,2.58,2.58,0,0,1,2-3.38q5.78-1.36,11.6-2.54a2.78,2.78,0,0,1,3.49,2.43c.79,3.54,1.55,7.09,2.31,10.64a6.4,6.4,0,0,1,.12,1,2.67,2.67,0,0,1-2.17,3,2.76,2.76,0,0,1-3.08-2.16c-.38-1.47-.65-3-1.08-4.93-2.79,4.85-5.34,9.28-8.09,14,1.07.09,1.69.19,2.31.19h17a12.06,12.06,0,0,1,1.81.11,2.47,2.47,0,0,1,2.25,2.63,2.36,2.36,0,0,1-2.27,2.61c-7.11.07-14.24.3-21.32-.18-4.24-.28-6.13-5-4-8.85C271.86,234,274.54,229.4,277.36,224.5Z"/><path class="cls-1" d="M314.16,206.11c.67-2.05,1.22-3.84,1.83-5.6a2.68,2.68,0,1,1,5.07,1.65q-1.71,5.52-3.51,11a2.81,2.81,0,0,1-3.87,2.06q-5.51-1.69-11-3.56a2.6,2.6,0,0,1-1.78-3.39,2.67,2.67,0,0,1,3.47-1.65c1.37.4,2.72.85,4.27,1.33a3,3,0,0,0-.22-.83q-3.35-5.88-6.74-11.75c-.76-1.31-1.12-1.3-1.89,0q-4.69,8.08-9.34,16.17c-.63,1.1-1.57,2-2.78,1.61a4.19,4.19,0,0,1-2.22-1.89,2.86,2.86,0,0,1,.33-2.29c3.22-5.71,6.45-11.42,9.82-17a5.91,5.91,0,0,1,10.35.09c2.47,4.11,4.8,8.3,7.2,12.45C313.44,205,313.73,205.42,314.16,206.11Z"/><path class="cls-1" d="M311.6,247.16c1.52,1.68,2.77,3,4,4.43a2.6,2.6,0,0,1,.26,3.35,2.44,2.44,0,0,1-2.9,1,3.82,3.82,0,0,1-1.59-1.09c-2.52-2.71-5-5.44-7.47-8.19-1.43-1.6-1.39-3,.17-4.46q4.18-3.87,8.45-7.67a2.7,2.7,0,0,1,4,0c1.08,1.18,1,2.63-.34,3.95-.55.54-1.13,1.06-1.7,1.57s-1.05.94-1.82,1.62c.78.05,1.24.1,1.7.1h12.57c1.91,0,2-.18,1.09-1.81l-8.56-14.88a9.08,9.08,0,0,1-.81-1.62,2.47,2.47,0,0,1,1.18-3.11,2.41,2.41,0,0,1,3.17.41,5.77,5.77,0,0,1,.94,1.34c3,5.1,5.76,10.28,8.86,15.29,2.94,4.74-.21,10.09-5.59,9.79-4.51-.25-9-.05-13.56-.05Z"/><path class="cls-1" d="M343.34,169.53h-13V143.26h13Z"/><path class="cls-1" d="M290.56,129.77V122h21v7.74Z"/><text class="cls-2" transform="translate(209.92 328.4) scale(0.83 1.05)">ةايملا لامعا<tspan x="179.39" y="0"> </tspan></text></svg>