<svg id="Layer_1" data-name="Layer 1" xmlns="http://www.w3.org/2000/svg" viewBox="0 0 540 520"><defs><style>.cls-1{fill:#095f61;}.cls-2,.cls-3{fill:#6e4e26;}.cls-3{font-size:29.41px;font-family:29LTBukra-Bold, "29LT Bukra";font-weight:700;}</style></defs><path class="cls-1" d="M261.88,272.05H251.16l.2-2.18-5.24-.79-.41,3h-11A45,45,0,0,1,237,259.68c7-20.41,21.21-32.47,42.44-36.2a40.43,40.43,0,0,1,7-.43c13.08,0,26.15,0,39.23,0,6.28,0,11.41-4.07,12.48-9.75,1.5-7.93-4.14-14.74-12.33-14.79-8.87-.06-17.74.1-26.6,0-24.87-.4-46.26-9.37-64-26.71A90.56,90.56,0,0,1,209,122.65c-.87-4.61-1.2-9.31-1.8-14.12h11.22l.34,2.68,5-.26.14-2.43h10.78c.33,2.64.56,5.29,1,7.9,3.36,19.18,13.34,34,29.63,44.57,10.81,7,22.81,10.15,35.65,10.19,8.58,0,17.17,0,25.75,0a39.58,39.58,0,0,1,7.56,78.3,38,38,0,0,1-7.6.79c-13.3.07-26.61-.11-39.91.08-10.35.14-17.95,5-22.48,14.4A56.63,56.63,0,0,0,261.88,272.05Zm52-89.86H303v5.24h10.8ZM287.32,234v5.29h10.74V234Zm22.15,5.28H320.2V234H309.47Zm-59.75-69.07L253,166l-7.81-7-3.66,3.92Zm-.53,87.35,4.9,2.27,5.58-8.55-4.07-3.56ZM232.61,141.71l-4.74,2.55,6,9.58,4.32-3.17Zm36.83,39.95,2-5L261.94,172l-2.68,4.64Zm83.68,19.61a27.53,27.53,0,0,0-6.4-10.28l-3.44,3.59c1.72,2.81,3.36,5.5,5.1,8.33ZM223.18,133.74l5-1.87-2.92-10.16-5.23,1.17ZM332,238.75a27.42,27.42,0,0,0,10.94-4.89l-2.93-4-9.05,4Zm-39.85-57c-2.05-.32-3.84-.6-5.63-.86-1.59-.24-3.69-1.15-4.62-.47s-.93,3-1.38,4.78l11.08,1.92Zm44.66,2.43a28.61,28.61,0,0,0-11.57-2.07v5.06l9.7,1.62C335.48,187.39,336.09,185.87,336.77,184.21Zm-59.84,56.23-1.5-5.23L264.7,240l2.9,4.52Zm69.74-18.11L351,224.8a26.79,26.79,0,0,0,3.49-11.44l-4.9-.41C348.61,216.14,347.67,219.14,346.67,222.33Z"/><path class="cls-2" d="M275.64,108.49H311l-10.72,10.64L311,129.75l-.2.39H281.1c0,3.87,0,7.53,0,11.2,0,.4.48.84.83,1.17a5.47,5.47,0,1,1-7.56,7.89c-2.18-2.25-2-5.57.32-7.91a3.39,3.39,0,0,0,.87-2.17c.06-9.94,0-19.88,0-29.82Z"/><path class="cls-1" d="M332.94,116.69h35.18l-10.65,10.53,11,10.57-.37.57H338.4c0,3.86,0,7.53.05,11.2,0,.43.59.89,1,1.27a5.47,5.47,0,1,1-7.73,7.73,5.49,5.49,0,0,1,.23-7.8,3.59,3.59,0,0,0,1-2.28c.06-9.95,0-19.89,0-29.83Z"/><path class="cls-2" d="M207.42,206.69h34.93l-10.49,10.44L242.79,228l-.24.43H212.88c0,3.81,0,7.43,0,11a2.13,2.13,0,0,0,.77,1.2c2.46,2.39,2.63,5.72.36,8a5.42,5.42,0,0,1-7.78,0c-2.27-2.28-2.09-5.61.31-8a3.13,3.13,0,0,0,.81-2c.05-10,0-20,0-30Z"/><text class="cls-3" transform="translate(150.68 336.22) scale(0.83 1.05)">قرطلا سيساتو ءاشنا<tspan x="319.28" y="0"> </tspan></text></svg>