<svg id="Layer_1" data-name="Layer 1" xmlns="http://www.w3.org/2000/svg" viewBox="0 0 540 520"><defs><style>.cls-1{fill:#095f61;}.cls-2{font-size:29.41px;fill:#61421c;font-family:29LTBukra-Bold, "29LT Bukra";font-weight:700;}</style></defs><path class="cls-1" d="M245.32,117.57c1.59.49,3.23.86,4.76,1.5a18.82,18.82,0,0,1,7.42,29.65,5.3,5.3,0,0,0-1.37,3.94,9.42,9.42,0,0,0,9.19,9.07,9.3,9.3,0,0,0,9.64-8.34,11.93,11.93,0,0,1,.52-2.86,5.63,5.63,0,0,1,10.89,2,20.49,20.49,0,0,1-17.15,20c-1.22.21-2.46.31-4,.49a18.12,18.12,0,0,0,8.09,3.92c14.31,3.27,27.24-6.57,28-21.26.22-4.2,3.76-6.75,7.52-5.42a5.65,5.65,0,0,1,3.73,5.39c.22,15.16-11.52,29.31-26.79,32.29a34,34,0,0,1-28.56-6.81l-1-.76v85.55c.81.2,1.69.39,2.56.63,11.19,3,19.08,9.77,23.3,20.37,1.84,4.62,4.89,7.13,10,7.33a5.57,5.57,0,0,1,5.07,5.62,5.69,5.69,0,0,1-5.4,5.33,20.36,20.36,0,0,1-19.57-12.95c-2.65-6.84-7.05-11.91-14.18-14.3a26.67,26.67,0,0,0-7.48-1.28c-5.35-.19-10.72-.07-16.08-.05a22.28,22.28,0,0,0-21,14.11c-3,7.84-8.41,12.82-16.93,14.26a12.32,12.32,0,0,1-4.61,0,5.4,5.4,0,0,1-4.11-5.79,5.65,5.65,0,0,1,5.39-4.94c4.39-.23,7.57-2.17,9.17-6.28,4.54-11.65,13-19,25.39-21.74.3-.07.59-.18,1-.29V180.37l-2.14,1.57c-20.6,15.2-50.26,3.18-53.88-21.85a31.89,31.89,0,0,1-.32-4.37,5.6,5.6,0,1,1,11.19-.18,22.23,22.23,0,0,0,18.29,21.58,21.94,21.94,0,0,0,17.94-4.05c-3.24-.92-6.75-1.4-9.77-2.87-7.35-3.58-11.1-9.71-11.45-17.75a5.63,5.63,0,0,1,11.24-.61c.66,5.82,3.72,9.15,8.93,9.5a9.42,9.42,0,0,0,10-10.57,2.49,2.49,0,0,0-.71-1.21c-10.19-11.84-4.51-28.38,10.91-31.7a3.57,3.57,0,0,0,.67-.29Zm-.57,147.88V155.82h-4.49V265.45Zm5.87-128.8a8.13,8.13,0,1,0-8.14,8A8.07,8.07,0,0,0,250.62,136.65Z"/><text class="cls-2" transform="translate(151.93 355.34) scale(0.83 1.05)">ءابرهكلا لامعا<tspan x="209.84" y="0"> </tspan></text></svg>