<svg id="Layer_1" data-name="Layer 1" xmlns="http://www.w3.org/2000/svg" viewBox="0 0 540 520"><defs><style>.cls-1{fill:#095f61;}.cls-2{font-size:29.41px;fill:#6e4e26;font-family:29LTBukra-Bold, "29LT Bukra";font-weight:700;}</style></defs><path class="cls-1" d="M197.13,223.26V147.17c1.27-2.93,3.49-4,6.66-3.89,6.45.17,12.91,0,19.36.06a5.15,5.15,0,0,1,5.39,5.35c0,1.67,0,3.33,0,5h42.24c0-1.81,0-3.49,0-5.18a5.11,5.11,0,0,1,5.22-5.16q10.47,0,20.94,0a5.12,5.12,0,0,1,5.24,5.31c0,1.67,0,3.34,0,5h42.23c0-1.73,0-3.35,0-5a5.13,5.13,0,0,1,5.35-5.38q10.29,0,20.59,0a5.13,5.13,0,0,1,5.46,5.45q0,36.47,0,72.93a5.13,5.13,0,0,1-5.36,5.37c-4.6,0-9.19,0-13.79,0-.56,0-1.12.05-1.65.08V269h4.66c3.55,0,5.67,2.08,5.68,5.58q0,10.13,0,20.24c0,3.42-2.13,5.58-5.51,5.58H318.49A5.15,5.15,0,0,1,313,295q0-10.31,0-20.59a5.12,5.12,0,0,1,5.35-5.38c1.66,0,3.33,0,5,0v-41.8H249.58V269h4.6c3.67,0,5.77,2.06,5.77,5.68q0,10,0,20.06c0,3.54-2.1,5.67-5.6,5.67H213.17a5.16,5.16,0,0,1-5.56-5.52q0-10.22,0-20.42a5.13,5.13,0,0,1,5.44-5.46c1.66,0,3.31,0,4.93,0V227.1c-4.8,0-9.5-.13-14.19,0C200.62,227.26,198.4,226.18,197.13,223.26Zm10.55-6.75H365.22V206.25H207.68Zm20.95-52.17v10.3h42v-10.3Zm73.65,0v10.29h42V164.35ZM270.67,195.6V185.33h-42V195.6Zm73.67-10.29h-42v10.25h42ZM218,195.61V153.9H207.71v41.71Zm73.6,0V153.94H281.34v41.67Zm63.33,0h10.32V153.94H354.92Zm-116,73.32V227.24H228.63V268.9Zm95.18-41.72v41.66h10.26V227.18Zm-84.66,52.39h-31.2v10.27h31.2Zm74.14,10.23h31.2V279.54h-31.2Z"/><text class="cls-2" transform="translate(164.17 365.8) scale(0.83 1.05)">قرطلا فرص سيسات<tspan x="286.4" y="0"> </tspan></text></svg>