<svg id="Layer_1" data-name="Layer 1" xmlns="http://www.w3.org/2000/svg" viewBox="0 0 540 520"><defs><style>.cls-1{fill:#095f61;}.cls-2{fill:#6e4e26;}</style></defs><path class="cls-1" d="M112.88,311.81q5.22-14.32,10.45-28.63c.29-.82.34-1.91.92-2.39,1-.85,2.44-2,3.52-1.82,1.84.29,2.42,1.92,1.69,3.81q-4.2,10.75-8.35,21.51c-3.15,8.12-3.72,16.17.21,24.27,2.36,4.87,6.13,8.27,10.38,11.44a37.25,37.25,0,0,1,8,7.52c3.62,4.93,4.49,10.55,1.54,16.25-2.39,4.62-2.09,9.11-.16,13.79,4.61,11.11,9.07,22.27,13.6,33.41.28.69.64,1.34,1.08,2.22,4.09-1.76,8.06-3.45,12-5.17L202,393.07c.7-.3,1.47-1,2.07-.84,1.23.27,3,.68,3.37,1.56s-.35,2.77-1.19,3.39a29.25,29.25,0,0,1-5.56,2.63L160.5,417.35c-.87.38-1.72.81-2.74,1.3,1.12,2.66,2,5.2,3.23,7.6a8.24,8.24,0,0,0,8.09,5c3.67-.1,6-2.09,7.51-5.3,2.17-4.68,4.57-5.69,9.32-3.91,5.22,1.95,9.37.23,11.74-4.88,2-4.27,4.68-5.5,8.85-3.78,3.67,1.52,7.07,1.39,9.9-1.5s3-6.58,1.54-10.28q-9-22.29-18.08-44.57c-.81-2-1.66-4-2.62-6.26L172.8,361.66q-11,4.9-21.93,9.86c-1.94.88-3.89,1.5-5-.94s.89-3.42,2.74-4.25l40-18c1.27-.57,2.51-1.18,4.48-2.11-1.86-.84-3.15-1.44-4.44-2a17.63,17.63,0,0,1-10.34-18.49c.34-2.47.81-4.92,1.21-7.38,1.85-11.41-1.92-20.68-11.35-27.14-4.51-3.09-9.85-5-14.8-7.38-3.9-1.91-7.78-3.82-11.68-5.71-1.87-.91-3.19-2.16-2-4.33,1.06-2,2.69-1.61,4.47-.77,6.85,3.24,13.75,6.38,20.62,9.59,13.45,6.28,20.78,16.71,20.93,31.69,0,3.42-.9,6.86-1.53,10.27-1.28,6.94,1.36,12.23,7.86,14.83a19.34,19.34,0,0,1,11.24,11.08c6.72,16.56,13.56,33.08,20.13,49.7,2.25,5.69,1.34,11.24-3.12,15.66s-9.78,5.28-15.6,2.85l-1.13-.46c-4.61,9.37-11.33,12.31-21.29,8.68-2.14,5.57-6,9.28-12.07,10-6.39.76-12.3-3.05-15-9.66-5.89-14.33-11.68-28.69-17.5-43-1-2.51-2-5-2.92-7.58a17.9,17.9,0,0,1,.45-13.32c3.27-7.91,2-12.74-5.16-17.55-6.67-4.47-12.22-9.73-15-17.42-.82-2.23-1.46-4.51-2.18-6.77Z"/><path class="cls-1" d="M400.22,293.35h22.84c.32-2.71.45-5.39,1-8,1.76-8.95,10.55-16.13,19.28-16,1.86,0,3.61.54,3.3,2.53a4.61,4.61,0,0,1-3,3c-10.68,2.19-14.5,6.71-14.49,17.65,0,11.19,0,22.38,0,33.57,0,8.33,5.59,14.34,13.92,15.12,2,.19,3.8.62,3.66,3.13s-2,2.69-4,2.63c-10.08-.29-18.65-9.07-19.3-19.81-.06-1-.09-1.94-.15-3.16h-23c-2.23,5.84-4.32,7.28-10.68,7.28-6.19,0-12.38,0-18.57,0-4.37,0-7.52-1.73-9-6.05a2.43,2.43,0,0,0-1-1.44c-6.66-2.83-13.3,1.63-13.32,8.91,0,2.17,0,4.34,0,6.51s-.94,3.37-3.05,3.38c-7.82.05-15.65.13-23.46-.09-1.07,0-2.94-1.62-3-2.57-.69-11.39-.43-22.64,7.15-32.22s17.22-14.28,29.31-14.23c1.41,0,2.83-.09,4.24,0,1.88.15,2.86-.29,3.27-2.47a7.34,7.34,0,0,1,7.24-5.92q11.42-.18,22.82,0C396.48,285.2,399,287.88,400.22,293.35Zm-5.84,14.83h0c0-4.55,0-9.11,0-13.66,0-2.27-.6-3.76-3.28-3.73-6.84.07-13.68,0-20.51,0-2.37,0-3.34,1.13-3.34,3.38q0,14,0,28c0,2.22.92,3.42,3.31,3.4,6.84-.05,13.68-.07,20.51,0,2.44,0,3.28-1.19,3.28-3.4Q394.38,315.18,394.38,308.18Zm-33-8.77c-23.83-3.11-41.08,14.25-37.47,37.49H342c-1.46-14.36,5.45-20.33,19.36-18.62Zm61.81-.09H400.38V318h22.78Z"/><path class="cls-1" d="M227.72,147c8.76-18,22.71-28.4,42.79-27.59,24,1,37.73,15,43.31,37.43,4.4.33,8.82.08,12.95,1.06a25.56,25.56,0,0,1,19.47,27.18c-1.4,13.22-12,23.47-25.25,23.54q-50.5.27-101,0c-15.6-.11-28.89-12.86-30.09-28-1.29-16.33,9.47-30.75,25.41-33.51C219.28,146.4,223.49,147,227.72,147Zm42.33,55.95c16.52,0,33,.07,49.55,0,8.37,0,14.61-4,18.21-11.5s2.67-14.91-2.59-21.35-12.51-8.71-20.75-6.81c-5.43,1.26-6,1-6.51-4.4-1.95-19.61-20.92-35.71-40.55-34-16.62,1.4-28.41,9.8-34.6,25.49-1.11,2.8-2.67,3.19-5.53,2.87-4.23-.48-8.75-.93-12.81,0-12.76,3-20.36,14.85-18.75,28.1,1.46,12,12.45,21.58,25.11,21.63C237.24,203,253.65,202.94,270.05,202.94Z"/><path class="cls-2" d="M312.19,389.16c.48-1.52.85-4.85,2.46-7.4,5.09-8,10.61-15.81,16.05-23.63,1.19-1.7,3.08-2,4.46-.37,7.39,8.83,15,17.66,18.24,29,2.88,9.91-4.1,20.86-14.58,23.88C325.64,414.4,312.19,404.37,312.19,389.16Zm20.44-25.8c-4.59,7.38-9,14.2-13.12,21.14a12.5,12.5,0,0,0-1.2,10,15.4,15.4,0,0,0,19.17,10.55c8-2.36,12.87-10.91,10.12-18.35C344.44,378.2,338.77,371.19,332.63,363.36Z"/><path class="cls-2" d="M381.06,258.67c4,0,8-.06,12.05,0,5.12.09,8.07,2.71,8,7-.06,4.07-3.06,6.78-7.89,6.82q-12.36.12-24.74,0c-4.85-.05-7.76-2.73-7.79-6.86s2.74-6.73,7.67-6.94h12.69Zm-.08,8.14c3.91,0,7.82.09,11.72-.06,1.06,0,2.1-.83,3.15-1.28-1-.39-2-1.12-3-1.13q-11.88-.15-23.76,0c-1.05,0-2.09.84-3.13,1.29a11.93,11.93,0,0,0,3.3,1.12C373.17,266.9,377.08,266.81,381,266.81Z"/><path class="cls-1" d="M113.46,265.85c.22-4.67,1.78-7.29,4.93-8.68,4.16-1.85,8.36-3.61,12.63-5.16,4.44-1.62,8.5.18,10.52,4.48,1.09,2.35,2,4.79,3,7.2.78,2,.18,3.45-1.75,4.24-7.22,2.94-14.43,5.9-21.71,8.65-.93.35-3-.1-3.34-.79C115.94,272.25,114.56,268.51,113.46,265.85Zm24.89-2.23c-.56-1.42-1-2.41-1.34-3.44-.92-2.81-2.51-3.77-5.41-2.42-3.33,1.54-6.75,2.9-10.19,4.2-2.11.8-2.51,2.23-1.86,4.12.48,1.4,1.17,2.73,1.88,4.38Z"/><path class="cls-2" d="M255.66,305.91a10.33,10.33,0,0,1,1-3.48q4.1-6.6,8.61-12.93c1.43-2,3.49-1.94,4.89,0a120.77,120.77,0,0,1,8.49,13c2.34,4.42,1,9.24-2.52,12.75a11.82,11.82,0,0,1-13.19,2.49C258.43,315.86,255.62,311.61,255.66,305.91Zm12-11.05c-2.2,3.6-4.17,6.44-5.72,9.48a5.77,5.77,0,0,0,1.86,7.49,6.29,6.29,0,0,0,7.79-.08,5.73,5.73,0,0,0,1.67-7.53C271.78,301.27,269.89,298.5,267.69,294.86Z"/><path class="cls-1" d="M242.92,285.71c-8.38-.12-14.29-8.64-10.69-16.18,2.26-4.72,5.62-8.94,8.69-13.24,1.34-1.87,3.32-1.75,4.65.11,2.94,4.13,6.19,8.16,8.42,12.67C257.92,277,251.82,285.83,242.92,285.71Zm.31-23.87c-2.24,3.66-4.13,6.51-5.76,9.49-1.53,2.79-.6,5.26,1.65,7.26a6.45,6.45,0,0,0,7.82.27c2.41-1.85,3.43-4.41,2.11-7.17C247.54,268.53,245.5,265.62,243.23,261.84Z"/><path class="cls-2" d="M292.1,285.71c-8.71,0-14.66-8.72-10.84-16.53,2.21-4.52,5.44-8.56,8.38-12.69,1.42-2,3.43-2.07,4.86-.05,3,4.23,6.33,8.35,8.55,13C306.72,277.07,300.66,285.71,292.1,285.71Zm0-23.86c-2.22,3.63-4.12,6.38-5.66,9.32a5.74,5.74,0,0,0,1.68,7.53,6.71,6.71,0,0,0,7.86.08,5.85,5.85,0,0,0,1.79-7.53C296.28,268.29,294.37,265.55,292.11,261.85Z"/><path class="cls-2" d="M316.51,252.66c-8.73,0-14.65-8.8-10.77-16.61,2.24-4.51,5.47-8.55,8.42-12.67,1.46-2,3.44-1.91,4.85.09,2.93,4.14,6.17,8.17,8.38,12.7C331.2,244,325.23,252.68,316.51,252.66Zm.07-23.85c-2.25,3.67-4.26,6.5-5.78,9.57-1.32,2.7-.62,5.33,1.79,7.29a6.31,6.31,0,0,0,7.83.09,5.72,5.72,0,0,0,1.81-7.52C320.71,235.27,318.81,232.49,316.58,228.81Z"/><path class="cls-1" d="M255.33,240.59c.56-1.73.81-3.65,1.73-5.15,2.49-4,5.21-8,8-11.83,1.5-2.11,3.51-2.35,5.07-.14a124.89,124.89,0,0,1,8.5,13c2.33,4.38,1,9.33-2.48,12.78a12.36,12.36,0,0,1-13.27,2.49A12.74,12.74,0,0,1,255.33,240.59Zm12.34-11.87c-2.33,3.89-4.43,6.81-5.89,10-1.25,2.72-.34,5.38,2.21,7.14a6,6,0,0,0,7.55-.19c2.35-1.86,3.34-4.38,1.87-7.2C271.82,235.43,269.93,232.54,267.67,228.72Z"/><path class="cls-2" d="M218.81,252.66c-8.73.06-14.76-8.71-10.93-16.51,2.22-4.52,5.45-8.55,8.39-12.69,1.41-2,3.4-2.11,4.85-.07,3,4.23,6.29,8.35,8.52,13C233.33,244,227.38,252.61,218.81,252.66Zm0-23.89c-2.27,3.76-4.37,6.67-5.86,9.87-1.27,2.71-.44,5.37,2.09,7.18a6,6,0,0,0,7.55-.06c2.38-1.82,3.43-4.35,2-7.17C223,235.46,221,232.51,218.77,228.77Z"/><path class="cls-1" d="M281,446.9c-.64-.64-2.48-1.61-2.75-2.91-.41-2,1.36-2.86,3.34-3,3.13-.25,6.26-.88,9.37-.83,1.26,0,2.49,1.4,3.73,2.17-1,1.07-1.74,2.8-2.89,3.08C288.64,446.16,285.36,446.34,281,446.9Z"/><path class="cls-1" d="M408.49,233.25c-.92,1-1.53,2.33-2.42,2.58a3.35,3.35,0,0,1-3-1,98.57,98.57,0,0,1-5.45-10.63c-.31-.7.44-2.4,1.19-2.89s2.76-.44,3.08.08C404.18,225.18,406.21,229.1,408.49,233.25Z"/><path class="cls-1" d="M304.48,443.38c-.79-.79-2.23-1.6-2.26-2.45,0-1.08.84-2.85,1.75-3.18a69.16,69.16,0,0,1,10.84-3.11c1-.19,2.68.9,3.19,1.85.35.66-.51,2.8-1.28,3.09C312.91,441,308.94,442,304.48,443.38Z"/><path class="cls-1" d="M362.94,177.17c0,2.41-2.2,3.77-4.2,2.53a87.42,87.42,0,0,1-9.26-6.61,3.41,3.41,0,0,1-.48-3.31c.5-.8,2.52-1.59,3.16-1.2,3.5,2.15,6.8,4.62,10.11,7.07C362.71,176,362.79,176.79,362.94,177.17Z"/><path class="cls-1" d="M378.31,196.53c-.71-.29-1.2-.35-1.48-.63-3-2.83-6-5.61-8.76-8.63a3.15,3.15,0,0,1,.18-3.11c.74-.68,2.75-1.14,3.32-.65A104.54,104.54,0,0,1,380.4,192c.51.56.38,2.11,0,3S379,196.08,378.31,196.53Z"/><path class="cls-1" d="M398.25,373.68c-.76-1.66-2.21-3.34-1.83-4.27a72.68,72.68,0,0,1,5.54-10.6,3.4,3.4,0,0,1,3.24-.72c.84.42,1.8,2.3,1.49,3-1.62,3.63-3.58,7.13-5.55,10.6C400.77,372.35,399.79,372.66,398.25,373.68Z"/><path class="cls-1" d="M385.57,392.65c-2.49.06-4-2.15-2.74-4a103,103,0,0,1,7.28-9.5,3.16,3.16,0,0,1,3.1-.26c.79.66,1.55,2.61,1.14,3.22-2.33,3.49-5,6.75-7.6,10.05C386.47,392.52,385.79,392.57,385.57,392.65Z"/><path class="cls-1" d="M358.67,412.72c.56.51,1.75,1.08,1.92,1.87a3.71,3.71,0,0,1-.79,3.13,85.19,85.19,0,0,1-9.43,6.32,3.48,3.48,0,0,1-3.3-.69c-.56-.73-.55-2.9.05-3.38,3.12-2.49,6.51-4.65,9.83-6.89A6,6,0,0,1,358.67,412.72Z"/><path class="cls-1" d="M165.83,193a7.61,7.61,0,0,1-.77,1.71c-2.56,2.94-5.05,5.95-7.83,8.67-.61.6-2.85.58-3.35,0-.68-.81-1-2.86-.46-3.6a78.58,78.58,0,0,1,7.5-8.51c.62-.62,2.23-.64,3.22-.36C164.86,191.09,165.3,192.26,165.83,193Z"/><path class="cls-1" d="M421,279.65c-.65.66-1.65,2.48-2.74,2.53s-2.69-1.66-3-2.87a47,47,0,0,1-1.44-9.87c-.05-1.09,1.39-2.24,2.14-3.36,1.12.77,3,1.35,3.22,2.34C420,271.73,420.28,275.19,421,279.65Z"/><path class="cls-1" d="M244,445c-4.34-1-8.06-1.71-11.64-2.86a3.66,3.66,0,0,1-1.86-3.07,3.61,3.61,0,0,1,2.89-2.08,70.6,70.6,0,0,1,11,2.33,3.78,3.78,0,0,1,1.87,3.15C246.17,443.43,244.66,444.28,244,445Z"/><path class="cls-1" d="M261.92,441.14a30.9,30.9,0,0,1,6.12.53,4,4,0,0,1,2.35,2.76c.09.74-1.47,2.39-2.32,2.41a76.71,76.71,0,0,1-11.64-.52c-.93-.11-1.66-1.83-2.49-2.82,1-.85,2-2.11,3.15-2.45,1.5-.43,3.21-.1,4.83-.1Z"/><path class="cls-1" d="M385.88,200.74c3.28.15,10.69,10.2,10,12.33-.59,1.82-2.42,3.05-3.68,1.64a79.56,79.56,0,0,1-7.93-10.89C383.93,203.25,385.45,201.51,385.88,200.74Z"/><path class="cls-1" d="M416.66,256.3c-.91.83-1.69,2.07-2.66,2.25a3.28,3.28,0,0,1-2.86-1.36,91.56,91.56,0,0,1-3.53-11.4c-.19-.78,1.06-2.38,2-2.77a3.16,3.16,0,0,1,2.89,1.18C414,248,415.19,251.9,416.66,256.3Z"/><path class="cls-1" d="M416,337.67c-1.58,4.39-2.83,8.3-4.46,12-.32.72-2.4,1.33-3.26,1a3.45,3.45,0,0,1-1.6-3A79.22,79.22,0,0,1,410.31,337a3.65,3.65,0,0,1,3-1.53C414.26,335.57,415.07,336.86,416,337.67Z"/><path class="cls-1" d="M220.36,438.87c-4.27-1.81-8.11-3.28-11.76-5.13-.68-.34-1.11-2.46-.71-3.29a3.44,3.44,0,0,1,3.06-1.36,80.75,80.75,0,0,1,10.55,4.2,3.67,3.67,0,0,1,1.36,3.16C222.7,437.36,221.27,438.05,220.36,438.87Z"/><path class="cls-1" d="M138.64,233c-1.85,4.19-3.39,8-5.25,11.62a3.14,3.14,0,0,1-3,.72c-.88-.51-1.91-2.21-1.65-3a85.55,85.55,0,0,1,4.67-11c.36-.7,2.32-1.06,3.34-.79C137.56,230.79,138.07,232.19,138.64,233Z"/><path class="cls-1" d="M337.83,424.91c.93,1,2.05,1.69,2.33,2.64a3.06,3.06,0,0,1-.86,2.76,111.73,111.73,0,0,1-11.1,5.17c-.69.27-2.28-.64-2.84-1.43s-.29-2.56.2-2.84C329.47,429,333.53,427.08,337.83,424.91Z"/><path class="cls-1" d="M142.16,223.85c-2.61-.13-3.9-2-2.84-3.95a81.44,81.44,0,0,1,6.1-9.52c.57-.75,2.61-1,3.61-.59.68.28,1.35,2.43,1,3.18-1.82,3.42-4,6.67-6.11,9.89C143.48,223.47,142.48,223.67,142.16,223.85Z"/><path class="cls-1" d="M376.64,397c.6.45,1.72.86,2,1.59a3.45,3.45,0,0,1-.26,3,101.79,101.79,0,0,1-8.5,8,3.22,3.22,0,0,1-3.12-.25c-.67-.59-1.12-2.58-.69-3.06,2.85-3.08,5.95-5.94,9-8.83C375.34,397.13,375.88,397.17,376.64,397Z"/><path class="cls-1" d="M182.85,177.83c-.1,1.88-9.08,9.11-11,8.82a2.58,2.58,0,0,1-1.54-4.42,72.56,72.56,0,0,1,8.53-7C180.63,174,183,175.69,182.85,177.83Z"/><path class="cls-1" d="M376.64,278.48c2-1.52,3-2.87,4.21-3.07,2.26-.37,2.77,1.4,2.77,3.34s-.76,3.48-2.68,3.14C379.68,281.67,378.65,280.15,376.64,278.48Z"/><path class="cls-1" d="M376.87,253.25c1.82-1.35,2.93-2.79,3.89-2.7s2.75,1.78,2.63,2.54a4.42,4.42,0,0,1-2.63,3C380,256.34,378.72,254.7,376.87,253.25Z"/></svg>