<svg id="Layer_1" data-name="Layer 1" xmlns="http://www.w3.org/2000/svg" viewBox="0 0 540 520"><defs><style>.cls-1{fill:#095f61;}.cls-2{fill:#6e4e26;}</style></defs><path class="cls-1" d="M148.44,116.18c1.29-.6,2.58-1.73,3.86-1.74,29.65-.1,59.29-.06,88.93-.1,2.79,0,4.06,1,4,3.92q-.1,11.2,0,22.41c0,2.82-1.13,4.05-4,4-4.61-.09-9.23,0-14,0v55.11c4.93,0,9.74.07,14.55-.07.78,0,1.63-.92,2.26-1.59,2.07-2.18,3.88-4.65,6.12-6.63A15.4,15.4,0,0,1,261,187.61c7.36.12,14.72.2,22.08,0,6.16-.18,10.94,2.34,14.85,6.75,6.47,7.31,9.49,16.22,11.68,26l-5.49,1.31c-1.95-5.22-3.45-10.25-5.67-14.93a35.62,35.62,0,0,0-6.27-9.14c-4.81-5.07-10.42-5-15.39-.06-6,5.88-8.8,13.42-10.62,21.35-4.39,19.2-4.05,38.22,3.38,56.68a37.47,37.47,0,0,0,6.94,10.84c5.49,6.09,11.6,5.57,17.4-1.45a54.68,54.68,0,0,0-7.35-.31c-5.07.5-8.62-1.86-10.34-6.17-2.27-5.73-4.54-11.66-5.37-17.7a166.93,166.93,0,0,1-1.28-25.59,71.61,71.61,0,0,1,4.71-25.1,28.57,28.57,0,0,1,3.25-6.1c4.14-5.74,10.49-5.93,14,.19,2.81,4.86,4.4,10.5,6.12,15.92,1,3,1.07,6.34,1.64,10h3c8.27,0,16.54,0,24.81,0,29,.13,55.63,22.36,60.81,50.95a78.84,78.84,0,0,1,1.21,13.2c.15,15.75.06,31.49.06,47.23v3.43h-6V327.15c-5.73,4.14-10.75,4-15.59-.63-1.66-1.6-3.68-1.31-5.48.15-6.53,5.23-11.13,4.86-16.62-1.35-1.32-1.5-2.6-3-4-4.65l4.54-4c1.59,1.81,3.13,3.61,4.71,5.36,2.4,2.66,4.26,2.74,7,.35q7.18-6.39,14.56.08c2.55,2.23,4.33,2,6.79-.33a12.23,12.23,0,0,0,4.13-10.36c-.5-8.14,0-16.36-.68-24.48-2-24.32-21.9-45.86-46-49.95a83.56,83.56,0,0,0-13.21-1.16c-14.62-.14-29.24,0-43.86,0h-3.69v10.3h3.19c12.91,0,25.83-.36,38.72.1,16.5.61,29.55,8.2,39.77,21.59-.9.69-1.65,1.29-2.42,1.85s-1.65,1.13-2.17,1.48c-3.72-3.47-7.08-7.12-10.95-10.11a42.78,42.78,0,0,0-26.16-8.81c-12.6-.17-25.21-.05-37.81,0-.58,0-1.17.09-2,.17.45,3.19.89,6.23,1.41,9.86h31.5l-1.13,6H278.51c1.54,3,2.62,6.11,4.53,8.53.9,1.14,3.4,1.42,5.16,1.4,10.62-.13,19.47,3.69,26.43,11.68a31.3,31.3,0,0,1,8,21c.06,14.32,0,28.65,0,42.71L339,352.08V336.74h6.07c0,4.73.16,9.54-.07,14.33-.13,2.72.52,4.45,3.15,5.64,4,1.8,7.62,4.65,11.76,5.81,6.61,1.84,12.55-.63,18.05-4.6,9.36-6.75,19.31-7.36,29.56-2a33.36,33.36,0,0,1,4,2.67c8.63,6.21,18.43,6,26.8-.52,4.68-3.67,9.26-7.47,14-11.05,1-.74,2.87-1.39,3.72-.93a4.78,4.78,0,0,1,2,3.59q.17,35.58,0,71.15c0,1.21-1.1,2.41-1.69,3.61H148.44Zm303.44,302.1V355.37c-2.84,2.24-5.49,4.11-7.89,6.25-11,9.81-25.7,10-37,1.21-7.73-6-17.26-5.63-25.28.05-12.19,8.65-23,8.62-35.33-.06-8.1-5.73-17.53-5.64-25.56.22-11.41,8.33-23.2,8.39-34.61.17-8.58-6.18-17.71-6.09-26.31,0a35.11,35.11,0,0,1-9,4.77c-9.06,3-17.42,1.07-25.08-4.53-8.47-6.2-17.75-6.41-25.8-.75-13.17,9.29-24.7,8.94-37.22-1.11-2.46-2-5-3.91-7.81-6.14v62.88ZM221,284.54h-2.64c-12,0-24-.06-36,0a13.62,13.62,0,0,1-9.79-3.95c-4.09-3.83-6.53-8.67-8.29-13.86-4.11-12.18-4.62-24.7-2.84-37.31,1.09-7.71,3.17-15.18,7.65-21.73,3.57-5.21,8.11-8.26,14.87-8.06,11.28.34,22.58.1,33.86.1h3.09V144.83H154.49V289.66c0,18.36,0,36.72,0,55.08a4.4,4.4,0,0,0,2,4c3.55,2.65,6.95,5.52,10.42,8.28,9.89,7.89,18.85,8.08,29.18.71A26.53,26.53,0,0,1,217.44,353c1.12.23,2.25.42,3.51.64Zm6.47,0a4.44,4.44,0,0,0-.29.92q0,34.94,0,69.89a3.69,3.69,0,0,0,1.29,2.41c8.43,6.88,18.39,7.09,27.25.74a33.23,33.23,0,0,1,5.91-3.6c10-4.33,19.41-3,28.17,3.4,8,5.9,17.45,6.39,25,1.23a4.07,4.07,0,0,0,1.76-2.75c.09-15.33.37-30.67-.08-46-.33-10.93-6-18.87-15.94-23.79l-1.89,2.18c-4.19,4.93-9.23,7.8-16,7.53-7.25-.28-14.51-.14-21.76,0a15,15,0,0,1-10.32-3.57c-2.34-2-4.22-4.55-6.41-6.76-.76-.76-1.82-1.7-2.77-1.73C236.77,284.44,232.14,284.54,227.42,284.54Zm12.33-78.73h-3.62c-16.73,0-33.46.27-50.18-.14-6.71-.17-10.62,2.73-13.35,8.24a45.88,45.88,0,0,0-2.39,5.53,72.27,72.27,0,0,0-2.84,33.41c1,7.42,2.84,14.63,7.3,20.88a10.68,10.68,0,0,0,9.48,4.81c15.92-.14,31.84-.05,47.76-.05h7.83a102.83,102.83,0,0,1,0-72.68Zm31.43-12c-3.21,0-6,.11-8.82,0-4.25-.21-8,1.16-10.36,4.53-3,4.33-6,8.88-7.85,13.77-5.12,13.65-5.8,27.92-4.21,42.3,1,8.84,2.85,17.55,7.36,25.33,7,12.06,11,11.63,23.76,10.5C252.43,260.92,252.38,225.05,271.18,193.78Zm-32.13-73.16H154.73v17.82h84.32Zm54.06,109.29c-.7-3.94-1.12-7.76-2.11-11.42a54.31,54.31,0,0,0-3.85-10.07c-1.65-3.26-3.16-3.2-5.12-.19a13,13,0,0,0-1.76,3.48c-1.62,5.95-3.12,11.93-4.74,18.2Z"/><path class="cls-2" d="M417.52,325.91a12.08,12.08,0,0,1-12.17-12,12.24,12.24,0,0,1,11.95-12.32,12.44,12.44,0,0,1,12.39,12.25A12.23,12.23,0,0,1,417.52,325.91Zm5.84-12.26a5.76,5.76,0,0,0-6-5.75,5.9,5.9,0,1,0,6,5.75Z"/><path class="cls-2" d="M345.12,307.43h-6.06c-.45-9.61-3.39-18.3-9.88-25.84l4.63-4.1A46,46,0,0,1,345.12,307.43Z"/><path class="cls-2" d="M287.58,344.07a12.05,12.05,0,0,1-11.68-12.49,12.22,12.22,0,0,1,12.41-11.84,12.44,12.44,0,0,1,11.9,12.73A12.22,12.22,0,0,1,287.58,344.07Zm6.33-12.1a5.77,5.77,0,0,0-5.89-5.9,5.9,5.9,0,1,0,5.89,5.9Z"/></svg>