<svg id="Layer_1" data-name="Layer 1" xmlns="http://www.w3.org/2000/svg" viewBox="0 0 540 520"><defs><style>.cls-1{fill:#095f61;}.cls-2{fill:#6e4e26;}</style></defs><path class="cls-1" d="M218.51,359.86V300.91H121.08c-5.87,0-7.68-1.48-7.68-6.3V175c0-4.71,1.82-6.25,7.36-6.26h51.08V101.93c0-5.14,1.69-6.59,7.69-6.59H351.18c6,0,7.67,1.46,7.67,6.61v66.81h50.74c5.89,0,7.7,1.47,7.7,6.28q0,59.81,0,119.6c0,4.79-1.82,6.27-7.71,6.27H312.33V359.8l2.88-2.54c12.17-10.62,31.73-9.78,42.49,1.82,7.19,7.75,18.47,7.71,25.8-.1,11.84-12.61,34.21-12.24,44.91,1,2.76,3.43,5.46,5,10.47,4.63,5.8-.42,7.63,1.39,7.63,6.23q0,10.86,0,21.71c0,4.67-1.85,6.21-7.42,6.22H92.15c-6.33,0-8-1.38-8-6.67,0-7.24,0-14.48,0-21.72,0-4.24,2-5.83,7.08-5.87a10.14,10.14,0,0,1,1.46,0c4.25.68,6.66-.92,9-3.91,11.35-14.25,33.84-14.55,46.18-.81,5.76,6.42,18.65,6.77,24,.33,11.27-13.44,33.92-13.66,45.31-1.21A10.33,10.33,0,0,0,218.51,359.86ZM218.6,291c-31.78-24.92-29.19-62.74-4.12-84.54,25.64-22.29,67.39-24.51,95.28-5.05C324.55,211.75,333.29,225,335.13,241c2.26,19.54-5.76,36.11-23.06,50H347V105.33H183.81V291Zm216.1,83c-7.72,1.9-11.39-1.83-14.37-6.53a7.36,7.36,0,0,0-.63-.75c-7.48-9.22-20.15-9.74-27.68-.54-8.9,10.88-34,10.93-43,0-7.27-8.88-19.84-9-27-.11-9,11.11-34.28,11.05-43.23,0A17,17,0,0,0,252,366c-9,11.24-34.47,11.2-43.48,0a17,17,0,0,0-26.76.11c-9,11.12-34.27,11.06-43.24,0-7.34-9-20.19-8.54-27.42.58-3.61,4.55-6.6,9.66-15.05,7.43v14.74H434.7Zm-204.27-9.72c7.88.62,11.54-2.08,11.54-8.36V291.28h11.65v60.6a34.8,34.8,0,0,1,23.5.06V325.56h11.6v3.14c0,9.68.14,19.37-.09,29.05-.07,2.83,1.35,4.51,4.07,5.48a60.46,60.46,0,0,0,7.2,1.67,6.12,6.12,0,0,0,.48-1.37c0-27.82.54-55.65-.24-83.46-.53-19.21-22.35-31.89-44.29-26.91-15.29,3.48-25.53,15.12-25.56,29.3q-.07,39.6,0,79.19C230.28,362.55,230.38,363.44,230.43,364.32ZM171.59,291V178.79H125.27V291ZM359.11,178.68v112.2h46.31V178.68ZM311.72,276c15.93-15.59,17.9-45.54-6.62-64.64-25-19.43-64.38-17-85.43,5.29-19.66,20.76-13.56,48-1,58.77,1.28-3.25,2.7-6.57,3.85-10a4.41,4.41,0,0,0-.32-3.14,36.57,36.57,0,0,1-3.67-16.37c.25-23.29,26.9-41.93,54.2-37.81,26.41,4,43.5,23.76,38.28,45.88-1.67,7.11-3.09,13.61.31,20.39A8.38,8.38,0,0,1,311.72,276Zm-80.08-22.33c22.71-15.62,45.14-15.54,67.55.06,3.56-11.79-2.22-24.19-14.3-31a40.42,40.42,0,0,0-40.57.93C233.16,230.61,227.75,243.34,231.64,253.65Z"/><path class="cls-2" d="M247.82,129.6c0-3.34,0-6.37,0-9.41.07-3.47,2.16-5.23,6.32-5.26,7.55,0,15.09-.05,22.63,0,3.91,0,6,1.84,6.08,5.15.07,3,0,6.08,0,9.51,3.85,0,7.45,0,11.05,0,4.36,0,6.45,1.78,6.48,5.45,0,6.21.05,12.43,0,18.65,0,3.44-2.19,5.19-6.35,5.24-3.52.05-7.05,0-11.16,0,0,3,0,5.9,0,8.8,0,4.24-2,5.87-7.07,5.88q-10.59,0-21.17,0c-4.81,0-6.77-1.71-6.81-5.79,0-2.65,0-5.3,0-7.95a4.6,4.6,0,0,0-.34-.94c-3.46,0-7.07,0-10.67,0-4.36,0-6.44-1.78-6.46-5.46,0-6.21-.06-12.43,0-18.64,0-3.46,2.17-5.18,6.35-5.24C240.18,129.57,243.7,129.6,247.82,129.6Zm40.83,9.78c-3.92,0-7.54,0-11.16,0-4.14-.06-6.22-1.82-6.28-5.3-.06-3,0-6.06,0-9.18H259.5c0,3,0,5.85,0,8.69,0,4.08-2,5.76-6.8,5.8-3.49,0-7,0-10.47,0v9.8c3.78,0,7.29,0,10.81,0,4.35.05,6.4,1.79,6.46,5.46,0,3,0,6,0,9h11.7c0-3,0-5.74,0-8.48,0-4.3,1.94-5.93,7-6,3.47,0,6.94,0,10.47,0Z"/><path class="cls-2" d="M265.6,266.8h11.25v29H265.6Z"/></svg>