<svg id="Layer_1" data-name="Layer 1" xmlns="http://www.w3.org/2000/svg" viewBox="0 0 540 520"><defs><style>.cls-1{fill:#095f61;}.cls-2{fill:#6e4e26;}</style></defs><path class="cls-1" d="M157.82,217.31v-26.5H138.43c-3,0-6.08,0-9.12,0-9-.17-16-6.83-16.08-15.54q-.17-31.89,0-63.79c0-8.59,6.87-15.23,15.74-15.38,9.5-.16,19,0,29,0,0-3.25,0-6.15,0-9,.1-7.06,4.66-11.61,11.83-11.7q9.31-.1,18.64,0c7.05.08,11.65,4.51,11.77,11.27,0,2.92,0,5.85,0,9.11H379.49c0-2.78-.08-5.55,0-8.3.27-7.83,4.75-12,12.79-12.09,5.8,0,11.6,0,17.4,0,7.22,0,11.63,3.92,12.22,10.9.25,3,0,6.11,0,9.82h22.34c17.83,0,22.69,4.75,22.69,22.19q0,27.29,0,54.56c0,11.64-6.69,18-18.76,18h-25.9v26.5h26.59c11.15,0,18,6.62,18.06,17.47q.06,29.9,0,59.78c0,10.92-6.75,17.46-18,17.53-8.8.05-17.61,0-26.68,0v60.62c4.55,2,9.19,3.2,12.53,5.87,3.92,3.13,3.66,8,1.76,12.46,9.94,3.71,14.1,10.51,11.51,18.48a14.07,14.07,0,0,1-13.9,10q-31.69,0-63.39,0c-8.06,0-14.11-4.67-15.42-11.81-1.25-6.82,2.82-13.18,10.21-16,.51-.19,1-.33,1.91-.61-1.72-4-2.28-8.35.87-11.55,2.65-2.7,6.46-4.34,10.77-7.09V312.39H200.59v60.22c4.14,2.12,8.54,3.5,11.69,6.23,3.57,3.09,3.33,7.68,1.41,12.14,7.19,2.08,11.85,6.32,12.17,13.83.35,8-6,14.45-14.24,14.64-5.91.14-11.83,0-16.94,0,2,2.85,5.16,5.61,6.11,9,2.07,7.22-3.64,13.49-11.57,13.52-14.09.07-28.17,0-42.26,0H88.53c-7.32,0-12-3.46-13.17-9.62-1-5.32,2.55-10.06,9-12.73A7.08,7.08,0,0,0,87.55,416q18.83-43,37.47-86.12c3.52-8.08,10.17-11.44,17.72-9,4.23,1.37,6.81,4.37,8.48,8.24a133.46,133.46,0,0,0,6.46,13.46V312.1c-9.2,0-18.28-.07-27.36,0A16.57,16.57,0,0,1,118,307.47a14.57,14.57,0,0,1-4.78-10.73c0-21.4-.07-42.79,0-64.19.05-8.44,7.2-15.13,16-15.22C138.58,217.25,148,217.31,157.82,217.31Zm42.64-.21H379.2V191H200.46Zm-33.61,6.32c-13.06,0-25.33-.19-37.58.07-6.28.14-9.89,4.06-9.94,10.57q-.21,30.68,0,61.35c0,6.86,4.15,10.54,11.21,10.76,4,.12,8-.1,12,.07,2.55.11,3.5-.76,4.11-3.22,4.21-17.1,8.65-34.15,13-51.22C162,242.51,164.37,233.21,166.85,223.42Zm.08-121.57H133.06c-10.18,0-13.79,3.44-13.79,13.18q0,28.44,0,56.88a26.81,26.81,0,0,0,.17,3.59c.75,5.7,4.22,8.91,10.1,9.14,4.27.16,8.55-.07,12.82.1,2.66.12,3.76-.69,4.41-3.36,4.18-17.09,8.59-34.12,12.93-51.17C162.07,120.93,164.43,111.65,166.93,101.85ZM434.06,223.42c-7,27.65-14,55-21,82.69,12.94,0,25.33.23,37.72-.1,6.13-.16,9.75-4.35,9.76-10.29q.08-31.07,0-62.11c0-6-3.69-9.81-9.88-10.14C445.28,223.19,439.9,223.42,434.06,223.42Zm-21-38.87c13.32,0,26,.18,38.64-.09,5.36-.12,8.79-4.48,8.8-10.24q.06-30.84,0-61.69c0-6.14-3.62-10.11-10-10.53-5.34-.36-10.72-.08-16.41-.08C427.13,129.38,420.17,156.72,413.09,184.55ZM241.93,223.31c-10.07,0-19.56.08-29-.06-2.8,0-4,.67-4.72,3.53-5.84,23.56-11.92,47.08-17.91,70.61-.7,2.77-1.31,5.57-2,8.62h32.65C227.85,278.62,234.79,251.37,241.93,223.31Zm150,0c-10.72,0-20.9-.08-31.07.13-.85,0-2.1,1.79-2.4,2.94q-9.92,38.19-19.63,76.43a19.47,19.47,0,0,0-.27,3.19h32.33C377.83,278.66,384.77,251.38,391.9,223.34Zm-107.83.17c-7,27.42-13.94,54.78-21,82.66,10.65,0,20.81.08,31-.13.86,0,2.15-1.76,2.45-2.89q9.94-38.34,19.69-76.75a16.89,16.89,0,0,0,.17-2.89ZM391.9,101.85c-10.14,0-19.65.13-29.15-.07-3-.07-3.93,1-4.59,3.68-4.77,19.29-9.73,38.54-14.63,57.8-1.77,6.94-3.52,13.89-5.44,21.44,10.12,0,19.61-.13,29.09.08,3,.07,4-1,4.67-3.63,2.85-11.66,5.89-23.27,8.84-34.9C384.39,131.66,388.06,117.07,391.9,101.85ZM188.18,184.44c1.74.11,2.94.25,4.15.25,8.14,0,16.28-.13,24.41.08,3.19.08,4.45-.88,5.21-4,4.72-19.16,9.71-38.26,14.58-57.39,1.79-7,3.5-14.12,5.35-21.56-10.5,0-20.42-.1-30.33.14-1.09,0-2.76,1.85-3.08,3.1-5.08,19.36-10,38.75-14.93,58.14C191.77,170.18,190,177.13,188.18,184.44Zm74.89.26c10,0,19.67-.08,29.3.05,2.69,0,3.73-.77,4.39-3.42,4.74-19.31,9.72-38.56,14.63-57.83,1.8-7.08,3.59-14.16,5.45-21.5H284.11C277.14,129.41,270.18,156.78,263.07,184.7ZM202.63,102c-8.51,0-16.47.22-24.41-.1-3.73-.15-5.25.94-6.12,4.48-4.82,19.67-9.91,39.29-14.88,58.93-1.59,6.26-3.09,12.54-4.68,19h29.17C188.66,157,195.57,129.75,202.63,102Zm129.06,82.32L352.6,102c-8.61,0-16.61.24-24.58-.11-3.91-.17-5.13,1.35-5.95,4.67-4.55,18.4-9.31,36.76-14,55.13-1.89,7.46-3.7,14.94-5.61,22.63Zm45.68.19c8.95,0,17.22-.15,25.47.07,3.17.09,4.11-1,4.82-3.88,4.43-18,9.14-35.91,13.72-53.86,2.06-8.1,4-16.21,6.13-24.63h-29.2C391.38,129.46,384.45,156.7,377.37,184.5Zm-150,0c9,0,17.43-.11,25.82.06,2.76.05,3.72-.9,4.35-3.43,4.5-18.11,9.21-36.17,13.81-54.26,2.06-8.1,4-16.21,6.14-24.65H248.33C241.41,129.44,234.48,156.67,227.4,184.5Zm75,121.43c8.75,0,16.74-.17,24.71.09,3.54.11,5-1,5.78-4.34,3.93-16.22,8.15-32.36,12.25-48.54,2.45-9.69,4.85-19.38,7.33-29.29H323.21C316.28,251.13,309.41,278.16,302.35,305.93Zm-99.82-82.36c-8.72,0-16.73.2-24.71-.09-3.59-.12-4.93,1-5.74,4.36-4.81,19.58-9.88,39.09-14.83,58.64-1.59,6.29-3.1,12.6-4.79,19.45,8.73,0,16.84-.21,24.94.1,3.58.14,4.68-1.19,5.43-4.27,3.4-14,7-28,10.58-41.94C196.42,247.92,199.4,236,202.53,223.57Zm225,0c-8.74,0-17.11.13-25.46-.07-2.88-.06-4.05.76-4.72,3.53-2.77,11.53-5.83,23-8.75,34.5-3.71,14.59-7.37,29.18-11.21,44.4,8.76,0,17.13-.11,25.49.07,2.89.06,4-.85,4.7-3.6,3.08-12.7,6.44-25.32,9.66-38C420.65,251,424,237.57,427.53,223.57Zm-150,0c-9.08,0-17.48.13-25.87-.07-2.86-.06-3.7,1.11-4.29,3.52-2.52,10.36-5.23,20.68-7.85,31-4,15.75-8,31.5-12.08,47.63,1.51.11,2.7.26,3.89.26,7.17,0,14.35-.11,21.51.07,2.86.07,4.05-.77,4.73-3.57,3.07-12.69,6.44-25.32,9.66-38C270.66,251,274,237.6,277.55,223.57ZM386.08,373.69h29.33v-61.3H386.08Zm-192.36.23V312.39H164.34V317c0,10.55.44,21.13-.14,31.65-.46,8.35,1.81,15.78,5.49,23a4.26,4.26,0,0,0,2.8,2.2C179.51,374,186.53,373.92,193.72,373.92Zm-10.21,45.45c-2.23-5.19-4.25-10.11-6.53-14.92a3.81,3.81,0,0,0-2.88-1.53q-35.78-.12-71.56,0c-.86,0-2.25.25-2.51.78-2.41,5.1-4.62,10.28-7,15.7ZM402,397.11c-10.34,0-20.68-.09-31,0-6.38.06-10,4-9.2,9.66.62,4.3,4.16,6.8,10.12,6.81q30.19.09,60.38,0a16,16,0,0,0,4.09-.46c3.53-.95,5.62-3.24,6-6.82.55-5.43-3.11-9.14-9.33-9.2C422.66,397,412.32,397.1,402,397.11ZM138.7,425.8v0q-25.66,0-51.34,0c-3.27,0-5.36,1.35-5.65,4.54-.3,3.4,1.66,5.22,5.06,5.58a37.84,37.84,0,0,0,4.13.11h94.81c1.24,0,2.49,0,3.72-.07,3.44-.17,5.42-1.95,5.55-5.26.12-3.08-2.33-4.86-6.19-4.86Zm28-45.18c-2.11-4.95-3.81-9.3-5.87-13.49a4.46,4.46,0,0,0-3.25-2.09c-12.83-.15-25.67-.13-38.5,0-1,0-2.57.63-2.93,1.4-2.18,4.55-4.08,9.23-6.22,14.21Zm248.8-163.5v-26H386.07v26Zm-221.6,0V191H164.62v26.09Zm-20.22,179.8c-1.35-3.14-2.42-6-3.84-8.69a3.71,3.71,0,0,0-2.8-1.48q-28.58-.14-57.14,0c-1,0-2.53.34-2.85,1-1.47,2.88-2.6,5.93-4,9.22Zm228.17-6.06c7.86,0,15.73,0,23.59,0,3.59,0,6-1.36,6.05-5s-2.41-5.44-5.8-5.47q-23.58-.19-47.17,0c-3.38,0-5.8,1.76-5.87,5.42-.05,3.19,2,5,6,5C386.35,390.9,394.08,390.85,401.8,390.85Zm-221,6.19c2.24,5.22,4.06,9.81,6.23,14.23a4.6,4.6,0,0,0,3.4,2c6.9.18,13.8.17,20.7,0,5.19-.11,8.37-3.25,8.41-7.95s-3.18-8.15-8.19-8.23C201.39,396.94,191.46,397,180.77,397Zm235-301.28c0-3.46.12-6.4,0-9.32s-1.68-4.87-4.86-4.91c-6.76-.09-13.55-.3-20.27.18-1.65.12-4.07,2.47-4.46,4.16-.72,3.14-.2,6.54-.2,9.89Zm-221.79-.05c0-3.58.47-6.95-.19-10.1-.33-1.57-2.65-3.81-4.19-3.9a168.55,168.55,0,0,0-20.6,0c-1.57.09-4,2.24-4.28,3.77-.66,3.28-.2,6.77-.2,10.25ZM173.55,380.26c1.39,3.22,2.42,6.09,3.88,8.74a4.27,4.27,0,0,0,3.16,1.66c7.45.14,14.9,0,22.35.08,3.32,0,5.27-1.47,5.59-4.61.35-3.38-1.65-5.68-4.89-5.77C193.76,380.08,183.88,380.26,173.55,380.26ZM157,358.59c-1.26-3-2.19-5.62-3.51-8.06a3.75,3.75,0,0,0-2.79-1.59q-12.42-.18-24.83,0a3.78,3.78,0,0,0-2.72,1.68c-1.31,2.43-2.27,5-3.54,8Zm-6.77-16.1c-2.09-4.65-3.64-9.06-6-13a7,7,0,0,0-12,.17c-2.28,4-3.86,8.4-5.86,12.87Z"/><path class="cls-2" d="M302.21,442H252.49c-7.18,0-12.14-3.44-13.19-9.11-1.08-5.87,2.2-10.55,8.81-13.22a7,7,0,0,0,3.28-3.53c9.8-22.43,19.47-44.91,29.2-67.37,2.66-6.14,5.58-12.19,8.06-18.39s6.48-10.1,13.37-10.14c7.12-.05,11,4.21,13.65,10.34,12.19,28.4,24.62,56.71,36.89,85.08,1,2.34,2.16,3.88,4.88,4.73A10.9,10.9,0,0,1,365,432.7a11.5,11.5,0,0,1-11.4,9.25C336.46,442,319.33,442,302.21,442Zm-45.35-22.65h90.47c-2.25-5.23-4.26-10.15-6.53-14.95a3.83,3.83,0,0,0-2.94-1.46q-35.61-.12-71.24,0a4.24,4.24,0,0,0-3.25,1.6C261.1,409.22,259.15,414,256.86,419.33Zm45.26,6.47c-16.82,0-33.65.05-50.48,0-3.43,0-5.65,1.08-6.08,4.51-.4,3.23,1.66,5.6,5.44,5.61q51.11.14,102.2,0c3.82,0,5.81-2.32,5.45-5.6-.38-3.47-2.64-4.54-6-4.53C335.78,425.84,319,425.8,302.12,425.8Zm28.44-45.1c-2.16-5-4-9.6-6.15-14a4.17,4.17,0,0,0-3.18-1.65c-12.7-.12-25.41-.1-38.11,0-1.07,0-2.76.47-3.11,1.19-2.21,4.65-4.14,9.44-6.3,14.51Zm-63.72,16h70.52A61.12,61.12,0,0,0,334,389a5.13,5.13,0,0,0-3.6-2.22q-28.32-.21-56.65,0a4.23,4.23,0,0,0-3.13,1.63C269.14,390.9,268.15,393.66,266.84,396.66Zm53.93-38a57,57,0,0,0-3.15-7.38,5.06,5.06,0,0,0-3.47-2.3c-8.11-.2-16.23-.14-24.35-.05a3.47,3.47,0,0,0-2.61,1.13c-1.38,2.64-2.44,5.44-3.8,8.6Zm-6.71-16.12c-2.06-4.58-3.62-9-5.95-13a7,7,0,0,0-12,0c-2.32,4-3.88,8.39-5.93,13Z"/><path class="cls-2" d="M97.94,105.74c-1.64-1.8-3.31-2.82-3.71-4.2-3-10.25-9.58-16.79-20.19-19.77a4.72,4.72,0,0,1-2.77-3.63,4.91,4.91,0,0,1,3-3.48C84.67,71.83,91,65.37,94.12,55.54c.45-1.41,2.47-3.3,3.71-3.26s3.21,1.93,3.66,3.37c3,9.72,9.36,16,19.44,19a6,6,0,0,1,3.61,3.87c.17,1-2,3.05-3.51,3.47-10.28,3-16.69,9.33-19.56,19.3C101.06,102.69,99.5,103.81,97.94,105.74ZM84.14,78.29,97.69,91.6l13.78-13.28L97.74,65C93.51,69.13,88.63,73.9,84.14,78.29Z"/><path class="cls-2" d="M452.78,327.22c8.81.06,16,7.15,15.9,15.65s-7.57,15.57-16.22,15.53a15.91,15.91,0,0,1-16-16C436.57,333.81,443.74,327.16,452.78,327.22Zm9.45,15.68a9.72,9.72,0,1,0-9.79,9.27A9.46,9.46,0,0,0,462.23,342.9Z"/><path class="cls-2" d="M106.58,316.1a15.68,15.68,0,0,1-16.1,15.39c-8.83,0-16.1-7-16.12-15.51S82,300.12,90.81,300.32A15.78,15.78,0,0,1,106.58,316.1Zm-6.32-.05a9.73,9.73,0,0,0-19.45-.21,9.73,9.73,0,0,0,19.45.21Z"/><path class="cls-1" d="M265,359.61c-.32.86-.58,1.75-.95,2.6q-6.27,14.55-12.57,29.09c-.9,2.07-2,4.24-4.75,3.17s-2-3.37-1.07-5.42c4.25-9.82,8.4-19.68,12.85-29.41.61-1.34,2.56-2.47,4.13-2.91,1.07-.3,2.55.78,3.85,1.24Z"/><path class="cls-1" d="M104.25,152.45c0,4.41.24,8.84-.14,13.22-.12,1.44-1.84,2.75-2.83,4.12-1-1.32-2.91-2.62-3-4-.27-9.08-.27-18.18,0-27.25,0-1.31,2-2.57,3-3.85,1,1.36,2.66,2.68,2.77,4.11C104.48,143.34,104.25,147.9,104.25,152.45Z"/><path class="cls-1" d="M273.94,339.72a77.89,77.89,0,0,1-3.85,7.86,3.38,3.38,0,0,1-3.12.93c-1-.49-2.18-2.15-2-3a30.32,30.32,0,0,1,3.27-7.64c.44-.73,2.49-1,3.57-.75C272.72,337.38,273.25,338.81,273.94,339.72Z"/><path class="cls-1" d="M97.38,122.86c1.28-1.38,2.47-3.79,3.86-3.9,2.89-.24,3.09,2.38,3,4.63,0,.94.32,2.1-.13,2.76a19.2,19.2,0,0,1-3.13,3,17,17,0,0,1-2.68-3c-.41-.72-.08-1.83-.08-2.76Z"/></svg>