<svg id="Layer_1" data-name="Layer 1" xmlns="http://www.w3.org/2000/svg" viewBox="0 0 540 520"><defs><style>.cls-1{fill:#095f61;}</style></defs><path class="cls-1" d="M200.3,309.35c-4.31-6.13-8.47-11.66-12.22-17.46-7.92-12.27-9-25.52-5-39.34,1-3.43,3.31-4.51,6.72-3.5,9.74,2.87,17.48,13.12,18.33,24a37.84,37.84,0,0,1-4.21,21.32,4.6,4.6,0,0,0,.22,3.83c2.75,4.53,7.32,6.75,12.68,9.37,1.51-7.3,3.28-14.07,4.25-21a80,80,0,0,0-1.54-32.07c-.7-2.63-1.9-3.33-4.43-3.46-17.35-.88-33.37-5.7-47.39-16.32a9.07,9.07,0,0,0-3.1-1.23c-14.13-3.81-23.89-12-27-26.84a21.67,21.67,0,0,1,2-14.2c1.86-3.85,4.35-4.75,8.08-2.74,14.1,7.63,22.67,19.31,25.56,35.12a4.77,4.77,0,0,0,1.42,2.84c11.22,8.31,24,12.28,37.78,13.47a4.58,4.58,0,0,0,1.1-.24c-2.32-3.66-4.27-6.83-9-8.17-12.63-3.55-21.34-11.63-24.54-24.73a22.4,22.4,0,0,1,1.78-15.73c1.82-3.6,4.29-4.51,7.91-2.63,14.6,7.56,23.53,19.25,25.87,35.72a7.62,7.62,0,0,0,.91,2.86c3,4.73,6,9.41,9,14.09.37.58.79,1.13,1.24,1.77,6.94-13.38,5-27.85-5.06-38.29-3.82-4-7.74-7.81-11.81-11.5s-8.39-7.13-12.61-10.68l1.26-1.22c-2.64.88-5.23,2-7.92,2.59-9,2-16.44-1-23-7.09a21.79,21.79,0,0,0-6.1-3.92c-12.77-5.47-21.32-14.31-22.33-28.69-.27-3.75,1-7.75,2.19-11.41,1-3.12,3.91-4,6.9-2.52,15.46,7.68,25.09,19.71,26.94,37.2.31,3,1.45,4.73,4,5.91,4.32,2,8.52,1.77,13-.21-1.55-2.28-3-4.29-4.31-6.38-1.61-2.56-1.18-5.38.95-6.93a4.82,4.82,0,0,1,7,1.51c8.1,12.46,18.54,22.83,29.21,33,6.75,6.44,12.73,13.4,14.53,23,1.56,8.26.29,16.32-2,24.23-1.58,5.46-3.66,10.77-5.33,16.2a16.58,16.58,0,0,0-.93,6.31c1.2,11.07-.15,21.92-2.3,32.73-.18.89-.28,1.79-.44,2.82,5.6-2.1,7.1-1.17,9,4.32.92,2.61,2.72,4.92,4.12,7.36l1.25-.43c-.18-1.14,0-2.6-.6-3.39-9.13-11.64-6-28.18,3.34-38.53a48.08,48.08,0,0,1,8.5-7.2c4.18-2.9,7.31-1.71,8.73,3.12,4.43,15.09,1,28.76-7.31,41.69-2.13,3.33-3.4,7.24-4.89,11a2.59,2.59,0,0,0,.72,2.32c6.22,4.42,12.52,8.73,19.38,13.46.09-1.73.17-2.6.17-3.47,0-26.35,0-52.7-.07-79.05,0-1.41-1-2.88-1.8-4.21-.44-.79-1.42-1.26-1.9-2-3-4.74-5.82-9.5-11.9-10.88-.86-.2-1.58-1.31-2.22-2.11-4.27-5.39-3.63-18.22.94-23.37a5.27,5.27,0,0,0,1.19-3.76,30.4,30.4,0,0,0-8.16-16.73c-26.81-29.21-12.66-76.29,25.8-86,29.79-7.51,60.53,14.08,63.56,44.7,1.5,15.15-3.1,28.4-12.81,40-4.42,5.26-7.63,11.1-8.7,17.92a5.86,5.86,0,0,0,1.19,4,13.75,13.75,0,0,1,3.42,8.78c0,2.59,0,5.19,0,7.78A10.61,10.61,0,0,1,311,236.75a5.38,5.38,0,0,0-3.78,3.06c-1.66,2.93-4,5.47-5.92,8.26a6.72,6.72,0,0,0-1.57,3.37q-.14,40.14-.06,80.29c0,.31.06.61.16,1.49,2.35-1.45,4.53-2.7,6.61-4.1,3.77-2.56,7.52-5.15,11.18-7.86.69-.51,1.46-1.85,1.24-2.47-1.28-3.65-2.28-7.6-4.42-10.73-6.19-9.09-10.1-18.85-9.63-29.9.18-4.47,1.44-9,2.71-13.3,1-3.32,4-4.39,7-2.78,12.93,7,22.07,23.18,17.27,38.59-.88,2.8-2.81,5.26-4.15,7.93a19.08,19.08,0,0,0-.94,3.12l1.18.53c1.38-2.52,3.14-4.91,4-7.59,1.65-4.94,3.68-6.06,8.87-3.78-.72-4.51-1.76-8.8-2-13.14-.46-7.42-.37-14.88-.66-22.31A31.49,31.49,0,0,0,337,257c-2.88-8.75-5.92-17.39-7-26.65-1.37-12.12,2.58-22.21,11-30.76,4.94-5,10.29-9.68,15-14.94,6.12-6.87,11.74-14.16,17.59-21.26.78-.95,1.6-2.46,2.53-2.56,1.86-.2,4.17-.15,5.63.8,2,1.32,1.94,3.79.69,5.87-1.38,2.29-2.95,4.46-4.44,6.68,4.88,3.37,12.22,1.43,15.77-2.1a4.82,4.82,0,0,0,.93-2.83C396,152,405.32,140.1,420.06,132c4.22-2.33,6.77-1.44,8.66,3,4.6,10.79,1.57,20.28-5.48,28.82a34.44,34.44,0,0,1-16.7,10.88,9.89,9.89,0,0,0-3.83,2.38c-8.81,8.82-17.83,10.72-29.5,6.22a3.52,3.52,0,0,0-3,.62c-6.22,6.1-12,12.72-18.5,18.44-11.58,10.14-14.73,22.26-10.26,36.69.48,1.54.93,3.08,1.31,4.34,3.57-5.22,7.21-10.45,10.72-15.76a8.82,8.82,0,0,0,.86-3.27c2.73-15.54,11.32-26.84,25-34.39,4.16-2.29,6.67-1.32,8.66,3.05,4.52,9.89,1.27,22.87-7.89,31.35-4.16,3.86-8.85,7.15-14.42,8.19-5.08,1-7.41,4.34-10.27,9,4.28-.61,7.88-1,11.43-1.65a67,67,0,0,0,27.55-11.49,6.72,6.72,0,0,0,2.33-3.93c2.81-16.39,12.16-27.79,26.71-35.2,2.87-1.46,5.28-.33,6.83,2.86,4.55,9.35,2.83,18.19-2.65,26.46-5.28,8-12.93,12.65-22.14,14.93a11.16,11.16,0,0,0-3.85,1.77c-13.22,9.78-28.27,14.47-44.47,15.72-7.06.54-7.36.26-8.18,7.37a153.74,153.74,0,0,0-1.3,21c.2,9.42,2.24,18.61,5.3,27.84,4.93-2.05,9.19-4.56,12.27-8.83a4.52,4.52,0,0,0,.39-5.27c-6.06-12.72-5.62-25,3.18-36.48A21.7,21.7,0,0,1,380,249.12c3.64-1.11,6-.08,7,3.5,4.42,16.14,1.84,30.91-8.75,44.13-3.09,3.86-5.83,8-8.76,12.05,3.12,3.82,6.89,4.36,10.85,1.71,11.16-7.45,22.92-9.12,35.27-3.17a22.17,22.17,0,0,1,10.3,10.45c1.5,3,.81,5.59-2.23,7-15.44,7.44-30.78,8.17-46-.91-1.92-1.15-4.18-1.69-6.25-2.61-1.89-.83-4-1.43-5.52-2.76-3.69-3.36-7.19-3.2-11.86-1.75-5.43,1.69-11.4,1.6-17.13,2.33-1.06.13-2.38.14-3.1.77-5,4.3-9.91,8.75-14.85,13.17.19,0,.64.14.87,0,10.89-7.72,26.8-4.41,36.1,4.33a55.45,55.45,0,0,1,8.88,11.46c2.75,4.48.95,7.66-4.42,8.58-16.1,2.74-30.08-1.77-42.15-12.61a24.79,24.79,0,0,0-2.54-2.28,11.56,11.56,0,0,0-15.42,1.7,2.58,2.58,0,0,0-.58,1.64c0,9.53,0,19.06,0,28.84,1.23.06,2.23.16,3.23.16,13.18,0,26.35-.05,39.52.06,2.2,0,3.17-.63,4-2.75a21.15,21.15,0,0,1,39.86.21c.75,2,1.76,2.55,3.81,2.53,14.21-.09,28.42-.12,42.63.05a7.5,7.5,0,0,1,5.05,2.16c2.23,2.53.45,6.53-2.91,7.17a22.39,22.39,0,0,1-4,.2H140.52a32.48,32.48,0,0,1-3.42-.09,4.57,4.57,0,0,1-4.4-5,4.49,4.49,0,0,1,4.61-4.47c3.1-.12,6.21,0,9.56,0,1.82-9.1,6.29-16.43,14-21.56a32.05,32.05,0,0,1,19.76-5.19c13.48.58,23.85,9.92,29.09,26.58h61.06c.07-.92.2-1.71.2-2.5,0-8.2-.06-16.39.06-24.59,0-1.93-.49-3.1-2.32-3.79a20.65,20.65,0,0,1-3-1.63c-5.54-3.17-9.1-2.65-13.85,1.86-12,11.36-26.06,16-42.45,13.39-6-1-7.59-4-4.55-9.38,7.17-12.65,17.73-19.88,32.65-19.06,3.57.19,7.07,2,10.58,3.13a24.83,24.83,0,0,0,2.34.94c-5.06-4.54-10.1-9.1-15.22-13.57a3.68,3.68,0,0,0-2.31-.44,55.1,55.1,0,0,1-22.22-3.62,4.55,4.55,0,0,0-3.21.45c-4.16,2-8.24,4.2-12.36,6.3-1,.51-2.12.83-3.07,1.42-15.05,9.34-30.4,8.66-45.92,1.39-3.49-1.64-4.22-4.22-2.36-7.7,4.31-8.09,11.45-12.12,20.23-13.22,9.77-1.23,18.63,1.36,26.55,7.33a5.33,5.33,0,0,0,4.1.59C196.58,311.53,198.33,310.33,200.3,309.35ZM285,205.84c5.92,0,11.83.07,17.74-.09a3.21,3.21,0,0,0,2.46-1.75,48.37,48.37,0,0,1,11.36-23.13A42.46,42.46,0,0,0,327,155.14c1.7-29.36-28-51.52-55.68-41.72-28.75,10.16-37.69,46.49-16.91,69.05a38.21,38.21,0,0,1,10.18,20.2c.44,2.83,1.46,3.28,3.91,3.21C274,205.74,279.46,205.84,285,205.84Zm4.82,168.75V253.74h-9V374.59ZM285,227.52c5.69,0,11.39,0,17.09,0,7.72-.06,7.62-.09,7.7-7.95,0-2.94-.92-4-3.94-4-12.43.13-24.86,0-37.29.07-9.31,0-8.08-1.22-8.26,8.29-.05,2.65.79,3.71,3.56,3.65C270.86,227.42,277.91,227.51,285,227.52ZM199.35,374.77c-2.16-10.16-11.86-17.54-21.87-17s-19.48,8.37-20.17,17Zm-10-174.1c-1.41,9,7.6,21.13,15.7,21.55C202.65,213.07,197.39,206.12,189.33,200.67Zm-34,117.48c7.29,3.71,21.41,3.46,26.52-.48C174.31,311.93,162.3,312.09,155.38,318.15ZM405,164.62c9.84-2.85,17.19-13.19,15.6-21.78C412.88,148.21,407.47,155,405,164.62Zm9.08,153.75c-6.52-6.81-21.14-5.84-26.84-.32C396.13,321.81,404.89,321.55,414.12,318.37ZM191.46,261.11c-2.51,6.63.6,21.76,5.23,25.49C200.63,277.12,198.15,265,191.46,261.11Zm-27-96.53c-1.34-8.36-9.7-19.48-15.85-21.3C148.26,152.17,154.79,161.05,164.44,164.58ZM407,222.66c10.06-3.27,17.08-13.21,15.59-21.74C414.88,206.32,409.56,213.13,407,222.66ZM242,339.93c-9.05-3.36-21.2.87-25.3,8.6A38.59,38.59,0,0,0,242,339.93Zm73-65c-1.73,7.48,1.2,19.28,6.24,25.18C325.75,293.2,322.33,279.36,315,274.94Zm49.54-52.35c9.91-3.4,17.21-13.78,15.29-21.58A38,38,0,0,0,364.53,222.59ZM352.74,348.4c-4.17-7.16-17.39-12.66-24.76-8.46C332.62,344.94,344.41,349,352.74,348.4Zm-190-125.75a38.41,38.41,0,0,0-15.5-21.77C146.34,210,152.76,219,162.79,222.65Zm216,38c-7.36,5.77-9.68,17.92-5.23,26A38,38,0,0,0,378.81,260.62ZM254.87,275c-7.23,4.84-10.91,19.59-5.94,25C253.54,292.25,255.81,284.09,254.87,275Zm18.29-37.46c3.32,4.64,7.52,6.74,12.6,6.6a13.75,13.75,0,0,0,11.79-6.6ZM376.46,374.8A11,11,0,0,0,365,368.08c-4,.32-7.79,3.22-8.72,6.72Z"/><path class="cls-1" d="M351.66,158.31h-1.23c-4,0-6.16-1.79-6.14-4.92s2.2-4.86,6.18-4.89c1.34,0,2.69-.07,4,0,3.17.19,5.16,2.22,5.07,5.08-.09,2.7-2.06,4.54-5.11,4.71C353.52,158.35,352.59,158.31,351.66,158.31Z"/><path class="cls-1" d="M218.8,158.27a21.41,21.41,0,0,1-3.4,0c-2.49-.43-4.14-1.85-4.3-4.51a4.44,4.44,0,0,1,4-5.06,25.14,25.14,0,0,1,7.09,0,4.46,4.46,0,0,1,4.16,4.92c-.08,2.81-1.78,4.29-4.43,4.7a19.89,19.89,0,0,1-3.09,0Z"/><path class="cls-1" d="M290.22,86.36c0,5.1-1.52,7.42-4.87,7.45s-5-2.32-5-7.37c0-.93,0-1.86,0-2.79.19-3.19,2.15-5.17,5-5.11s4.59,2,4.78,5C290.27,84.5,290.22,85.43,290.22,86.36Z"/><path class="cls-1" d="M354.43,126.61c.12,3.08-2.1,4.24-4.41,5.28-2.64,1.19-5.14,3.49-8.27,1.17a4.68,4.68,0,0,1,.22-7.85,32.39,32.39,0,0,1,6.36-3.13A4.59,4.59,0,0,1,354.43,126.61Z"/><path class="cls-1" d="M261.27,99c-4.48-.27-4.86-4-6.15-6.93-1.1-2.5-1.25-4.83,1-6.76a4.72,4.72,0,0,1,7.35,1.62A34.43,34.43,0,0,1,265.79,93,4.9,4.9,0,0,1,261.27,99Z"/><path class="cls-1" d="M317.62,88.51c-1.5,3.42-2.43,6.3-4,8.8-1.2,1.92-3.48,2.22-5.56,1.14s-3.27-3-2.61-5.41a35.09,35.09,0,0,1,2.43-6.35,4.15,4.15,0,0,1,5.53-2.16C315.07,85.26,316.21,87.11,317.62,88.51Z"/><path class="cls-1" d="M344.06,172.77c3.39,1.44,6.2,2.28,8.63,3.75,2.1,1.27,2.3,3.64,1.26,5.81a4.3,4.3,0,0,1-5.12,2.59,29.08,29.08,0,0,1-6.63-2.53c-2.11-1.13-3.22-3.29-2.07-5.51C341,175.26,342.72,174.12,344.06,172.77Z"/><path class="cls-1" d="M230.9,177.4c-.24,4.56-4,4.91-6.92,6.21-2.49,1.09-4.83,1.25-6.76-1a4.74,4.74,0,0,1,1.62-7.35,36.51,36.51,0,0,1,6.07-2.32A4.87,4.87,0,0,1,230.9,177.4Z"/><path class="cls-1" d="M230.9,127.5c0,4.06-3,6.56-5.94,5.76A35.84,35.84,0,0,1,218.9,131a4.67,4.67,0,0,1-2.37-6.27,4.73,4.73,0,0,1,5.91-2.58,22.2,22.2,0,0,1,5.46,2.12A15.09,15.09,0,0,1,230.9,127.5Z"/><path class="cls-1" d="M241,112.94c-3.95-.1-9.88-5.67-9.57-8.44a6.15,6.15,0,0,1,2.5-4.21,5.54,5.54,0,0,1,4.8.14,16.73,16.73,0,0,1,5.21,5.18,5.85,5.85,0,0,1,.13,4.83C243.49,111.76,241.64,112.49,241,112.94Z"/><path class="cls-1" d="M334.53,99.46c3.54.11,6,4.23,4,7.16a23,23,0,0,1-5.64,5.63c-3,2.08-7-.29-7.12-3.92C325.68,105.2,331.44,99.35,334.53,99.46Z"/><path class="cls-1" d="M289,147.23c2.24,0,4.57-.37,6.7.11a8.38,8.38,0,0,1,4.68,2.85c1.29,1.79.58,4-1,5.62-7,7.2-14,14.43-21,21.59-2.36,2.41-5,2.54-7.15.58s-2-4.95.33-7.4c4.13-4.33,8.3-8.61,13.05-13.53-2.94,0-5.15,0-7.36,0-2.39,0-4.33-.79-5.25-3.08s-.14-4.18,1.57-5.87c6.25-6.2,12.43-12.47,18.69-18.66,2.47-2.44,5.36-2.53,7.41-.4,1.89,2,1.76,4.88-.52,7.17-3.42,3.45-6.95,6.8-10.43,10.19Z"/></svg>