<svg id="Layer_1" data-name="Layer 1" xmlns="http://www.w3.org/2000/svg" viewBox="0 0 540 520"><defs><style>.cls-1{fill:#095f61;}</style></defs><path class="cls-1" d="M444.93,105.51V407.92h-33.1V105.51Z"/><path class="cls-1" d="M326.79,171.71h36.62c4.32,0,5.86,1.53,5.86,5.84q0,32.06,0,64.1c0,4.12-1.59,5.7-5.71,5.7H289.72c-3.92,0-5.55-1.63-5.55-5.55q0-32.34,0-64.69c0-3.75,1.65-5.39,5.4-5.4Q308.17,171.69,326.79,171.71Z"/><path class="cls-1" d="M203.78,408.34c-24.44-.2-43.9-20.53-42.47-44.84.48-8.13,4.32-15.27,8.3-22.18,8.35-14.48,18.79-27.42,30-39.75,2.53-2.78,5.42-3.11,7.69-.61,13.74,15.12,26.5,30.93,35.35,49.57,11.65,24.52-6.22,53.18-31.86,57C208.47,407.91,206.12,408.08,203.78,408.34Zm-28.33-41.67a28.64,28.64,0,0,0,27.38,27.24c3.11.09,5.43-1.73,5.63-4.41a4.81,4.81,0,0,0-5.09-5,19,19,0,0,1-18.54-18.41c0-3.17-2.19-5.33-4.82-5.24C177.21,361,175.33,363.38,175.45,366.67Z"/><path class="cls-1" d="M274.49,233.23h-47v18.64H180.13c0-4.13,0-8.33,0-12.52,0-6.39-.09-12.74,1.71-19a47.29,47.29,0,0,1,45.52-34.45q22,0,44,0h3.13Z"/><path class="cls-1" d="M203.65,289.92H176.48c-4.28,0-5.79-1.55-5.8-5.89,0-5.61,0-11.22,0-16.83,0-4,1.59-5.63,5.46-5.63q27.6,0,55.22,0c3.89,0,5.49,1.65,5.5,5.59q0,8.57,0,17.13c0,4.06-1.61,5.63-5.75,5.64Z"/><path class="cls-1" d="M326.41,138.61h-31.6c-4.36,0-5.9-1.51-5.91-5.77s0-8.47,0-12.7c0-3.39,1.71-5.14,5.05-5.14q32.78,0,65.55,0c3.32,0,5,1.77,5,5.17,0,4.42.05,8.85,0,13.28,0,3.49-1.75,5.15-5.35,5.16Q342.8,138.63,326.41,138.61Z"/><path class="cls-1" d="M284.37,331.18c-3.71.79-6.86,1.47-10,2.13-2.94.62-5.42-.67-6.11-3.16a4.61,4.61,0,0,1,3.64-6q10.32-2.46,20.71-4.54c3.27-.65,5.5,1,6.24,4.33,1.41,6.32,2.76,12.66,4.11,19a11.62,11.62,0,0,1,.23,1.76c.19,2.85-1.31,4.93-3.88,5.42a4.92,4.92,0,0,1-5.5-3.85c-.67-2.63-1.16-5.3-1.92-8.81-5,8.66-9.55,16.57-14.44,25.07,1.9.17,3,.34,4.11.35,10.15,0,20.29,0,30.43,0a18.27,18.27,0,0,1,3.23.2,4.4,4.4,0,0,1,4,4.69c0,2.62-1.56,4.63-4.05,4.66-12.69.12-25.42.52-38.05-.33-7.59-.5-11-9-7.16-15.79C274.56,348.06,279.34,339.93,284.37,331.18Z"/><path class="cls-1" d="M350.08,298.35c1.19-3.67,2.17-6.86,3.26-10,1-3,3.56-4.39,6.16-3.52s3.83,3.46,2.89,6.48q-3.06,9.84-6.26,19.64c-1.11,3.39-3.51,4.72-6.9,3.68-6.57-2-13.1-4.16-19.61-6.37a4.63,4.63,0,0,1-3.18-6.05,4.77,4.77,0,0,1,6.19-2.95c2.44.72,4.87,1.52,7.63,2.39a6.11,6.11,0,0,0-.39-1.49q-6-10.5-12-21c-1.36-2.34-2-2.33-3.37.05q-8.38,14.41-16.68,28.87c-1.13,2-2.79,3.5-5,2.87a7.42,7.42,0,0,1-3.95-3.38c-.54-1-.08-2.93.58-4.09,5.74-10.19,11.51-20.37,17.53-30.41,4.36-7.28,14.09-7.16,18.49.16s8.57,14.81,12.84,22.22C348.79,296.31,349.31,297.11,350.08,298.35Z"/><path class="cls-1" d="M345.5,371.63c2.71,3,4.95,5.42,7.1,7.92a4.59,4.59,0,0,1,.47,6,4.35,4.35,0,0,1-5.17,1.84,6.88,6.88,0,0,1-2.85-1.94c-4.48-4.83-8.92-9.72-13.32-14.62-2.57-2.87-2.49-5.39.29-8q7.49-6.91,15.09-13.69c2.38-2.12,5.23-2.06,7.1,0s1.74,4.7-.61,7.05c-1,1-2,1.89-3,2.81s-1.88,1.67-3.26,2.89c1.4.09,2.22.18,3.05.18q11.22,0,22.44,0c3.41,0,3.6-.32,1.94-3.23q-7.63-13.29-15.29-26.57a17.6,17.6,0,0,1-1.44-2.88,4.42,4.42,0,0,1,2.11-5.56,4.31,4.31,0,0,1,5.66.73,10.76,10.76,0,0,1,1.68,2.4c5.26,9.1,10.28,18.36,15.82,27.29,5.25,8.46-.38,18-10,17.48-8.05-.45-16.14-.09-24.21-.09Z"/><path class="cls-1" d="M402.17,233H378.89V186.13h23.28Z"/><path class="cls-1" d="M307.94,162V148.23h37.45V162Z"/></svg>