<svg id="Layer_1" data-name="Layer 1" xmlns="http://www.w3.org/2000/svg" viewBox="0 0 540 520"><defs><style>.cls-1{fill:#095f61;}.cls-2{fill:#6e4e26;}</style></defs><path class="cls-1" d="M226.58,385.08H207.2c.13-1.37.24-2.58.37-3.94l-9.48-1.44c-.26,1.85-.5,3.6-.74,5.4H177.51a81.42,81.42,0,0,1,4-22.39c12.67-36.93,38.36-58.73,76.77-65.48a74.46,74.46,0,0,1,12.59-.79c23.65-.07,47.3,0,70.95,0,11.35,0,20.64-7.37,22.58-17.64,2.7-14.34-7.5-26.66-22.31-26.75-16-.1-32.08.19-48.11-.07-45-.72-83.66-16.94-115.81-48.32-25.12-24.51-40.81-54.29-47.31-88.77-1.57-8.32-2.18-16.83-3.27-25.53h20.29l.62,4.85,9.14-.48.26-4.38h19.49c.6,4.77,1,9.56,1.83,14.28,6.07,34.69,24.13,61.53,53.58,80.61,19.56,12.68,41.26,18.37,64.49,18.43,15.52,0,31,0,46.58,0,33.59.1,63.46,25.31,69.26,58.43,6.8,38.74-17.33,74.94-55.6,83.2a66.69,66.69,0,0,1-13.74,1.42c-24.06.14-48.12-.19-72.18.15-18.72.26-32.48,9.14-40.67,26.05C229,375.88,228.1,380.39,226.58,385.08Zm94-162.53H301V232h19.54Zm-48,93.72v9.57H292v-9.57Zm40,9.55h19.41v-9.53H312.65ZM204.59,200.89l6-7.65-14.12-12.66-6.61,7.1Zm-1,158L212.5,363l10.1-15.46c-2.22-1.93-4.56-4-7.38-6.45Zm-30-209.54L165.08,154,176,171.27l7.8-5.73Zm66.62,72.25,3.61-9-17.18-8.37-4.84,8.4Zm151.35,35.47A49.64,49.64,0,0,0,380,238.47L373.81,245,383,260Zm-235-122.14,9.12-3.38c-1.8-6.25-3.53-12.28-5.29-18.38L151,115.28C152.85,121.9,154.67,128.24,156.59,134.92ZM353.35,324.85A49.57,49.57,0,0,0,373.13,316l-5.31-7.21L351.46,316Zm-72.09-103c-3.7-.57-6.94-1.08-10.19-1.56-2.86-.42-6.66-2.07-8.35-.84s-1.67,5.37-2.49,8.65l20,3.48C280.63,228,280.93,225,281.26,221.8ZM362,226.2a51.93,51.93,0,0,0-20.92-3.75v9.16l17.54,2.94C359.71,232,360.81,229.21,362,226.2ZM253.8,327.91c-.82-2.89-1.66-5.82-2.71-9.46l-19.4,8.67c2.11,3.3,3.75,5.84,5.25,8.18Zm126.14-32.76,7.89,4.47a48.35,48.35,0,0,0,6.31-20.69l-8.87-.75Z"/><path class="cls-2" d="M251.47,89.24h63.94L296,108.49l19.39,19.2-.36.72h-53.7c0,7-.05,13.62.06,20.26,0,.72.88,1.51,1.51,2.11,4.29,4.15,4.58,10.19.63,14.28a9.84,9.84,0,0,1-14.29,0c-4-4.08-3.61-10.08.58-14.32a6.16,6.16,0,0,0,1.56-3.92c.1-18,.07-36,.07-53.94Z"/><path class="cls-1" d="M355.12,104.08h63.62l-19.25,19,19.87,19.11-.67,1H365c0,7-.06,13.63.08,20.26,0,.78,1.08,1.61,1.77,2.3a9.89,9.89,0,1,1-14,14c-3.85-4-3.56-10,.43-14.11a6.66,6.66,0,0,0,1.75-4.14c.12-18,.08-36,.08-53.95Z"/><path class="cls-2" d="M128.08,266.85h63.18l-19,18.89,19.75,19.69-.42.77H138c0,6.88,0,13.43.07,20a3.86,3.86,0,0,0,1.38,2.17c4.46,4.32,4.76,10.34.67,14.49a9.81,9.81,0,0,1-14.08,0c-4.11-4.11-3.79-10.15.56-14.52a5.72,5.72,0,0,0,1.47-3.66c.09-18.09.06-36.17.06-54.26Z"/></svg>