<svg id="Layer_1" data-name="Layer 1" xmlns="http://www.w3.org/2000/svg" viewBox="0 0 540 520"><defs><style>.cls-1{fill:#095f61;}</style></defs><path class="cls-1" d="M283.93,58c3.63,1.12,7.38,2,10.86,3.41,27.43,11.46,35.91,45.1,17,67.67a12.18,12.18,0,0,0-3.15,9,21.5,21.5,0,0,0,21,20.68,21.17,21.17,0,0,0,22-19,28.68,28.68,0,0,1,1.2-6.55,12.91,12.91,0,0,1,13.46-8.13c6.5,1,11.46,6.21,11.39,12.67-.26,23.28-17.19,41.79-39.13,45.61-2.79.49-5.62.7-9.08,1.11a41.32,41.32,0,0,0,18.48,9c32.65,7.47,62.16-15,63.92-48.52.51-9.59,8.57-15.4,17.15-12.36a12.88,12.88,0,0,1,8.52,12.29c.51,34.6-26.29,66.9-61.14,73.7-24.18,4.71-45.87-.61-65.17-15.54-.62-.48-1.26-.95-2.3-1.73V396.48c1.84.45,3.85.89,5.84,1.43,25.53,6.91,43.53,22.28,53.17,46.48,4.19,10.54,11.15,16.28,22.81,16.74,6.47.25,11.85,6.54,11.57,12.81A13,13,0,0,1,390,486.11c-19.06.83-37.53-11.11-44.68-29.56-6-15.59-16.08-27.17-32.35-32.64A61.22,61.22,0,0,0,295.85,421c-12.22-.43-24.46-.15-36.68-.12-21.31.05-40.33,12.63-47.85,32.21-6.87,17.89-19.2,29.26-38.63,32.54a28.67,28.67,0,0,1-10.53-.08,12.37,12.37,0,0,1-9.38-13.23,12.89,12.89,0,0,1,12.3-11.27c10-.52,17.27-4.94,20.93-14.33,10.36-26.6,29.55-43.26,57.94-49.62.69-.15,1.36-.4,2.24-.67V201.29l-4.88,3.59c-47,34.7-114.69,7.27-123-49.85a75.78,75.78,0,0,1-.74-10c-.07-7.6,5.53-13.36,12.75-13.36,7.06,0,12.56,5.57,12.8,12.95.81,24.69,17.07,44.22,41.73,49.25,15.2,3.11,29.1-.51,41-9.25-7.41-2.1-15.42-3.19-22.3-6.54-16.78-8.17-25.33-22.18-26.14-40.52a12.89,12.89,0,0,1,12.36-13.41c6.75-.36,12.46,4.81,13.28,12,1.51,13.27,8.51,20.88,20.4,21.68,13,.87,24.09-9.56,22.87-24.13a5.61,5.61,0,0,0-1.61-2.77c-23.27-27-10.28-64.77,24.89-72.33a8,8,0,0,0,1.54-.67Zm-1.29,337.49V145.28H272.39V395.47Zm13.4-294a18.56,18.56,0,1,0-18.58,18.34A18.44,18.44,0,0,0,296,101.52Z"/></svg>