<svg id="Layer_1" data-name="Layer 1" xmlns="http://www.w3.org/2000/svg" viewBox="0 0 540 520"><defs><style>.cls-1{fill:#095f61;}</style></defs><path class="cls-1" d="M83.54,268.87V109.75c2.65-6.12,7.29-8.29,13.92-8.13,13.5.34,27,.08,40.5.11,6.67,0,11.19,4.56,11.26,11.2,0,3.48,0,7,0,10.42h88.33c0-3.78-.05-7.3,0-10.81a10.68,10.68,0,0,1,10.9-10.8q21.9-.09,43.79,0c6.39,0,10.89,4.65,11,11.11,0,3.49,0,7,0,10.53h88.33c0-3.62,0-7,0-10.4.06-6.66,4.56-11.23,11.19-11.24q21.53-.08,43.06,0c6.9,0,11.41,4.51,11.41,11.4q0,76.26,0,152.53c0,6.64-4.58,11.19-11.23,11.22-9.61.05-19.21,0-28.82,0-1.17,0-2.34.11-3.45.16v87.43c3.43,0,6.58,0,9.74,0,7.42,0,11.86,4.37,11.87,11.68q0,21.17,0,42.33c0,7.15-4.45,11.65-11.53,11.66q-43.23,0-86.48,0c-6.9,0-11.44-4.51-11.45-11.36q-.06-21.53,0-43.06c0-6.66,4.55-11.18,11.19-11.25,3.48,0,7,0,10.43,0V277.07H193.23v87.42h9.63c7.67,0,12,4.3,12,11.86q0,21,0,42c0,7.4-4.39,11.85-11.7,11.85q-43.07,0-86.12,0c-7.14,0-11.63-4.45-11.64-11.54q0-21.35,0-42.7c0-6.9,4.49-11.37,11.38-11.43,3.47,0,6.94,0,10.31,0v-87.6c-10,0-19.86-.27-29.67.1C90.83,277.24,86.2,275,83.54,268.87Zm22.06-14.12H435.07V233.29H105.6Zm43.82-109.09V167.2H237.3V145.66Zm154,0v21.52H391.3V145.67ZM237.34,211v-21.5H149.5V211Zm154-21.53H303.48v21.43h87.91ZM127.16,211.06V123.83H105.67v87.23Zm153.93,0V123.91H259.64v87.14ZM413.52,211h21.59V123.91H413.52ZM170.88,364.33V277.19H149.42v87.14Zm199-87.27V364.2h21.47V277.06Zm-177,109.58H127.62V408.1h65.24ZM347.93,408h65.24V386.58H347.93Z"/></svg>